<svg width="48" height="48" viewBox="0 0 48 48" fill="none" xmlns="http://www.w3.org/2000/svg">
<g clip-path="url(#clip0_351_11775)">
<path d="M0 23.9992C0 25.6431 0.16575 27.2483 0.480656 28.7992L24 30.2601L47.5194 28.7992C47.8344 27.2483 48 25.6431 48 23.9992C48 22.3553 47.8342 20.7501 47.5194 19.1992L24 17.7383L0.480656 19.1992C0.16575 20.7501 0 22.3553 0 23.9992H0Z" fill="#0052B4"/>
<path d="M47.5192 28.8008H0.480469C2.70412 39.7555 12.389 48.0008 23.9998 48.0008C35.6107 48.0008 45.2955 39.7555 47.5192 28.8008Z" fill="#F0F0F0"/>
<path d="M0.480469 19.2H47.5193C45.2955 8.24531 35.6108 0 23.9998 0C12.3888 0 2.70412 8.24531 0.480469 19.2Z" fill="black"/>
<path d="M34.4349 19.2H13.5654L17.8292 17.1943L15.5586 13.0651L20.1885 13.9505L20.7754 9.27344L24.0002 12.7135L27.2252 9.27344L27.8117 13.9505L32.4417 13.0651L30.1714 17.1945L34.4349 19.2Z" fill="#FFDA44"/>
<path d="M0 24.0005C0 37.2552 10.7452 48.0005 24 48.0005L4.79962 9.59961C1.78612 13.6111 0 18.597 0 24.0005Z" fill="#A2001D"/>
<path d="M24 48.0005C37.2548 48.0005 48 37.2552 48 24.0005C48 18.597 46.2139 13.6111 43.2004 9.59961L24 48.0005Z" fill="#A2001D"/>
</g>
<defs>
<clipPath id="clip0_351_11775">
<rect width="48" height="48" fill="white"/>
</clipPath>
</defs>
</svg>
