<svg width="48" height="48" viewBox="0 0 48 48" fill="none" xmlns="http://www.w3.org/2000/svg">
<g clip-path="url(#clip0_351_11772)">
<path d="M24 48C37.2548 48 48 37.2548 48 24C48 10.7452 37.2548 0 24 0C10.7452 0 0 10.7452 0 24C0 37.2548 10.7452 48 24 48Z" fill="#F0F0F0"/>
<path d="M23.9999 0C14.4848 0 6.26335 5.53734 2.38135 13.5653H45.6184C41.7365 5.53734 33.5149 0 23.9999 0Z" fill="#338AF3"/>
<path d="M23.9999 48.0008C33.5149 48.0008 41.7365 42.4635 45.6185 34.4355H2.38135C6.26335 42.4635 14.4848 48.0008 23.9999 48.0008Z" fill="#338AF3"/>
<path d="M31.1732 23.9996L28.2421 25.3783L29.803 28.217L26.6202 27.6081L26.2168 30.8233L23.9999 28.4586L21.7829 30.8233L21.3797 27.6081L18.1969 28.2169L19.7577 25.3783L16.8267 23.9996L19.7578 22.6208L18.1969 19.7822L21.3796 20.391L21.783 17.1758L23.9999 19.5405L26.2169 17.1758L26.6202 20.391L29.8031 19.7822L28.2422 22.6209L31.1732 23.9996Z" fill="#FFDA44"/>
</g>
<defs>
<clipPath id="clip0_351_11772">
<rect width="48" height="48" fill="white"/>
</clipPath>
</defs>
</svg>
