<svg width="48" height="48" viewBox="0 0 48 48" fill="none" xmlns="http://www.w3.org/2000/svg">
<g clip-path="url(#clip0_351_11763)">
<path d="M46.5072 32.347C47.472 29.7471 48 26.9349 48 23.9992C48 21.0635 47.472 18.2515 46.5072 15.6514L24 13.5645L1.49278 15.6514C0.528094 18.2515 0 21.0635 0 23.9992C0 26.9349 0.528094 29.7471 1.49278 32.347L24 34.434L46.5072 32.347Z" fill="#F0F0F0"/>
<path d="M24 47.9999C34.319 47.9999 43.1162 41.4869 46.5071 32.3477H1.49268C4.8838 41.4869 13.6807 47.9999 24 47.9999Z" fill="#D80027"/>
<path d="M24 0C13.6807 0 4.8838 6.513 1.49268 15.6522H46.5072C43.1162 6.513 34.319 0 24 0Z" fill="#D80027"/>
</g>
<defs>
<clipPath id="clip0_351_11763">
<rect width="48" height="48" fill="white"/>
</clipPath>
</defs>
</svg>
