<svg width="48" height="48" viewBox="0 0 48 48" fill="none" xmlns="http://www.w3.org/2000/svg">
<g clip-path="url(#clip0_351_11773)">
<path d="M24 48C37.2548 48 48 37.2548 48 24C48 10.7452 37.2548 0 24 0C10.7452 0 0 10.7452 0 24C0 37.2548 10.7452 48 24 48Z" fill="#6DA544"/>
<path d="M23.9999 9.39062L43.826 23.9993L23.9999 38.608L4.17383 23.9993L23.9999 9.39062Z" fill="#FFDA44"/>
<path d="M24.0001 32.3479C28.6105 32.3479 32.3479 28.6105 32.3479 24.0001C32.3479 19.3898 28.6105 15.6523 24.0001 15.6523C19.3898 15.6523 15.6523 19.3898 15.6523 24.0001C15.6523 28.6105 19.3898 32.3479 24.0001 32.3479Z" fill="#F0F0F0"/>
<path d="M19.826 23.4785C18.3744 23.4785 16.9735 23.6993 15.6548 24.109C15.7132 28.669 19.4261 32.3481 23.9999 32.3481C26.8282 32.3481 29.3261 30.9403 30.8361 28.7886C28.2526 25.5545 24.2775 23.4785 19.826 23.4785Z" fill="#0052B4"/>
<path d="M32.1928 25.5995C32.2933 25.0816 32.3476 24.5473 32.3476 24.0001C32.3476 19.3897 28.6101 15.6523 23.9998 15.6523C20.5597 15.6523 17.6066 17.7337 16.3286 20.7054C17.4583 20.4713 18.6279 20.348 19.826 20.348C24.6744 20.3479 29.0606 22.3633 32.1928 25.5995Z" fill="#0052B4"/>
</g>
<defs>
<clipPath id="clip0_351_11773">
<rect width="48" height="48" fill="white"/>
</clipPath>
</defs>
</svg>
