<svg width="48" height="48" viewBox="0 0 48 48" fill="none" xmlns="http://www.w3.org/2000/svg">
<g clip-path="url(#clip0_343_5098)">
<path d="M24 48C37.2548 48 48 37.2548 48 24C48 10.7452 37.2548 0 24 0C10.7452 0 0 10.7452 0 24C0 37.2548 10.7452 48 24 48Z" fill="#F0F0F0"/>
<path d="M48 23.9994C48 14.4844 42.4627 6.26286 34.4348 2.38086V45.6179C42.4627 41.736 48 33.5145 48 23.9994Z" fill="#D80027"/>
<path d="M0 23.9994C0 33.5145 5.53734 41.736 13.5653 45.618V2.38086C5.53734 6.26286 0 14.4844 0 23.9994Z" fill="#D80027"/>
<path d="M28.1739 27.1301L32.3478 25.0431L30.2609 23.9997V21.9127L26.087 23.9997L28.1739 19.8257H26.087L24 16.6953L21.913 19.8257H19.8261L21.913 23.9997L17.7391 21.9127V23.9997L15.6522 25.0431L19.8261 27.1301L18.7826 29.217H22.9566V32.3474H25.0434V29.217H29.2174L28.1739 27.1301Z" fill="#D80027"/>
</g>
<defs>
<clipPath id="clip0_343_5098">
<rect width="48" height="48" fill="white"/>
</clipPath>
</defs>
</svg>
