<svg width="48" height="48" viewBox="0 0 48 48" fill="none" xmlns="http://www.w3.org/2000/svg">
<g clip-path="url(#clip0_351_11774)">
<path d="M24 48C37.2548 48 48 37.2548 48 24C48 10.7452 37.2548 0 24 0C10.7452 0 0 10.7452 0 24C0 37.2548 10.7452 48 24 48Z" fill="#F0F0F0"/>
<path d="M0.82666 30.2617C3.04272 38.4839 9.51682 44.9581 17.7391 47.1741V30.2617H0.82666Z" fill="#D80027"/>
<path d="M17.739 0.826172C9.51682 3.04214 3.04263 9.51633 0.82666 17.7385H17.7391V0.826172H17.739Z" fill="#0052B4"/>
<path d="M47.1731 17.7385C44.9571 9.51633 38.4829 3.04214 30.2607 0.826172V17.7386H47.1731V17.7385Z" fill="#D80027"/>
<path d="M30.2607 47.1741C38.4829 44.9581 44.9571 38.484 47.1731 30.2617H30.2607V47.1741Z" fill="#0052B4"/>
<path d="M30.2611 23.9992C30.2611 27.4571 27.458 30.2601 24.0002 30.2601C20.5424 30.2601 17.7393 27.4571 17.7393 23.9992C17.7393 20.5413 24.0002 17.7383 24.0002 17.7383C24.0002 17.7383 30.2611 20.5413 30.2611 23.9992Z" fill="#496E2D"/>
<path d="M17.7393 23.9992C17.7393 20.5413 20.5424 17.7383 24.0002 17.7383C27.458 17.7383 30.2611 20.5413 30.2611 23.9992" fill="#0052B4"/>
<path d="M20.4785 20.8691V24.7822C20.4785 26.7272 22.0552 28.3039 24.0002 28.3039C25.9453 28.3039 27.522 26.7272 27.522 24.7822V20.8691H20.4785Z" fill="#D80027"/>
</g>
<defs>
<clipPath id="clip0_351_11774">
<rect width="48" height="48" fill="white"/>
</clipPath>
</defs>
</svg>
