<svg width="512" height="513" fill="none" xmlns="http://www.w3.org/2000/svg"><g clip-path="url(#a)"><path d="M256 513a256 256 0 1 0 0-512 256 256 0 0 0 0 512Z" fill="#F0F0F0"/><path d="M306 508a256 256 0 0 0 201-201H306v201ZM5 307a256 256 0 0 0 201 201V307H5ZM507 207A256 256 0 0 0 306 6v201h201ZM206 6A256 256 0 0 0 5 207h201V6Z" fill="#496E2D"/><path d="M239 307h-33v201c11 2 22 4 33 4V307ZM239 207V2c-11 0-22 2-33 4v201h33Z" fill="#FFDA44"/><path d="M273 2a259 259 0 0 0-34 0v205h34V2ZM239 512a259 259 0 0 0 34 0V307h-34v205Z" fill="#000"/><path d="M206 240v-33H5c-2 11-4 22-4 33h205ZM306 240h205c0-11-2-22-4-33H306v33Z" fill="#FFDA44"/><path d="M306 274h205a259 259 0 0 0 0-34H306v34ZM1 240a259 259 0 0 0 0 34h205v-34H1Z" fill="#000"/><path d="M256 379a122 122 0 1 0 0-244 122 122 0 0 0 0 244Z" fill="#D80027"/><path d="M284 271c-9-19-21-37-21-37v-13a14 14 0 0 0-27-2 11 11 0 0 0-4 21c1-4 5-7 9-9l2 2h2s-7 19-7 29c0 27 19 36 19 36l-10 9h19v-18l9 9s17-11 9-27ZM256 157l4 13h14l-11 7 4 13-11-8-11 8 4-13-11-7h14l4-13ZM197 176l11 8 11-8-4 13 11 8h-14l-4 12-4-12h-14l11-8-4-13ZM161 226h13l4-13 4 13h14l-11 8 4 13-11-8-11 8 5-13-11-8ZM161 288l11-8-5-13 11 8 11-8-4 13 11 8h-14l-4 13-4-13h-13ZM197 338l4-13-11-8h14l4-12 4 12h14l-11 8 4 13-11-8-11 8ZM256 357l-4-13h-14l11-7-4-13 11 8 11-8-4 13 11 7h-14l-4 13ZM315 338l-11-8-11 8 4-13-11-8h14l4-12 4 12h14l-11 8 4 13ZM351 288h-13l-4 13-4-13h-14l11-8-4-13 11 8 11-8-5 13 11 8ZM351 226l-11 8 5 13-11-8-11 8 4-13-11-8h14l4-13 4 13h13ZM315 176l-4 13 11 8h-14l-4 12-4-12h-14l11-8-4-13 11 8 11-8Z" fill="#496E2D"/></g><defs><clipPath id="a"><path fill="#fff" transform="translate(0 1)" d="M0 0h512v512H0z"/></clipPath></defs></svg>