<svg width="48" height="48" viewBox="0 0 48 48" fill="none" xmlns="http://www.w3.org/2000/svg">
<g clip-path="url(#clip0_343_5099)">
<path d="M24 48C37.2548 48 48 37.2548 48 24C48 10.7452 37.2548 0 24 0C10.7452 0 0 10.7452 0 24C0 37.2548 10.7452 48 24 48Z" fill="#F0F0F0"/>
<path d="M24 17.7394H47.1732C46.5714 15.5069 45.6568 13.403 44.4774 11.4785H24V17.7394Z" fill="#338AF3"/>
<path d="M9.06027 42.7824H38.9396C41.1299 41.0379 43.0083 38.919 44.4773 36.5215H3.52255C4.99171 38.9189 6.87008 41.0379 9.06027 42.7824Z" fill="#338AF3"/>
<path d="M8.34777 5.80664C6.46096 7.43142 4.8298 9.34477 3.52255 11.4781H8.34777V5.80664Z" fill="#338AF3"/>
<path d="M24 23.9992C24 21.5546 24 19.5087 24 17.7383H14.6087V23.9992H8.34778V17.7383H0.826781C0.28875 19.7346 0 21.8329 0 23.9992C0 26.1655 0.28875 28.2638 0.826781 30.2601H47.1733C47.7113 28.2638 48 26.1655 48 23.9992H24Z" fill="#338AF3"/>
<path d="M24 0C20.6673 0 17.4934 0.679969 14.6087 1.90762V11.4783H24C24 9.29278 24 7.434 24 5.21737H38.9397C34.84 1.95225 29.6484 0 24 0Z" fill="#338AF3"/>
</g>
<defs>
<clipPath id="clip0_343_5099">
<rect width="48" height="48" fill="white"/>
</clipPath>
</defs>
</svg>
