<svg width="48" height="48" viewBox="0 0 48 48" fill="none" xmlns="http://www.w3.org/2000/svg">
<g clip-path="url(#clip0_343_5097)">
<path d="M0 23.9994C0 34.3185 6.513 43.1155 15.652 46.5065L17.7391 23.9993L15.652 1.49219C6.513 4.88331 0 13.6803 0 23.9994Z" fill="#6DA544"/>
<path d="M47.9999 24C47.9999 10.7452 37.2547 0 23.9999 0C21.0643 0 18.252 0.528094 15.652 1.49278V46.5072C18.252 47.472 21.0643 48 23.9999 48C37.2547 48 47.9999 37.2547 47.9999 24Z" fill="#D80027"/>
<path d="M15.6522 32.3479C20.2626 32.3479 24 28.6105 24 24.0001C24 19.3898 20.2626 15.6523 15.6522 15.6523C11.0419 15.6523 7.30444 19.3898 7.30444 24.0001C7.30444 28.6105 11.0419 32.3479 15.6522 32.3479Z" fill="#FFDA44"/>
<path d="M10.9565 19.8262V25.0435C10.9565 27.6369 13.0588 29.7392 15.6522 29.7392C18.2456 29.7392 20.3479 27.637 20.3479 25.0435V19.8262H10.9565Z" fill="#D80027"/>
<path d="M15.6522 26.6092C14.7891 26.6092 14.0869 25.907 14.0869 25.0439V22.957H17.2173V25.044C17.2173 25.907 16.5151 26.6092 15.6522 26.6092Z" fill="#F0F0F0"/>
</g>
<defs>
<clipPath id="clip0_343_5097">
<rect width="48" height="48" fill="white"/>
</clipPath>
</defs>
</svg>
