<svg width="48" height="48" viewBox="0 0 48 48" fill="none" xmlns="http://www.w3.org/2000/svg">
<g clip-path="url(#clip0_343_5094)">
<path d="M0 23.9992C0 26.9349 0.528094 29.747 1.49278 32.347L24 34.434L46.5072 32.347C47.4719 29.747 48 26.9349 48 23.9992C48 21.0635 47.4719 18.2514 46.5072 15.6514L24 13.5645L1.49278 15.6514C0.528094 18.2514 0 21.0635 0 23.9992H0Z" fill="#FFDA44"/>
<path d="M46.5072 15.6522C43.1162 6.51309 34.3192 0 24 0C13.6809 0 4.88384 6.51309 1.49281 15.6522H46.5072Z" fill="#D80027"/>
<path d="M1.49284 32.3477C4.88387 41.4868 13.6809 47.9999 24.0001 47.9999C34.3192 47.9999 43.1162 41.4868 46.5073 32.3477H1.49284Z" fill="#D80027"/>
</g>
<defs>
<clipPath id="clip0_343_5094">
<rect width="48" height="48" fill="white"/>
</clipPath>
</defs>
</svg>
