<svg width="48" height="48" viewBox="0 0 48 48" fill="none" xmlns="http://www.w3.org/2000/svg">
<g clip-path="url(#clip0_351_11771)">
<path d="M24 48C37.2548 48 48 37.2548 48 24C48 10.7452 37.2548 0 24 0C10.7452 0 0 10.7452 0 24C0 37.2548 10.7452 48 24 48Z" fill="#D80027"/>
<path d="M23.0169 19.6113L24.9862 22.3249L28.1752 21.2909L26.2029 24.0021L28.1719 26.7156L24.9839 25.6776L23.0117 28.3889L23.0137 25.0363L19.8257 23.9983L23.0149 22.9642L23.0169 19.6113Z" fill="#F0F0F0"/>
<path d="M17.643 30.7828C13.8971 30.7828 10.8604 27.7461 10.8604 24.0002C10.8604 20.2543 13.8971 17.2176 17.643 17.2176C18.8109 17.2176 19.9099 17.513 20.8693 18.0328C19.3641 16.5608 17.3057 15.6523 15.0343 15.6523C10.4239 15.6523 6.68652 19.3898 6.68652 24.0001C6.68652 28.6105 10.424 32.3479 15.0343 32.3479C17.3059 32.3479 19.3642 31.4394 20.8693 29.9674C19.9099 30.4874 18.8109 30.7828 17.643 30.7828Z" fill="#F0F0F0"/>
</g>
<defs>
<clipPath id="clip0_351_11771">
<rect width="48" height="48" fill="white"/>
</clipPath>
</defs>
</svg>
