<svg width="48" height="48" viewBox="0 0 48 48" fill="none" xmlns="http://www.w3.org/2000/svg">
<g clip-path="url(#clip0_343_5095)">
<path d="M24 48C37.2548 48 48 37.2548 48 24C48 10.7452 37.2548 0 24 0C10.7452 0 0 10.7452 0 24C0 37.2548 10.7452 48 24 48Z" fill="#F0F0F0"/>
<path d="M13.5652 32.3477L15.6522 46.5073C18.2521 47.4721 21.0643 47.9999 24 47.9999C34.3191 47.9999 43.1162 41.4869 46.5071 32.3477H13.5652Z" fill="black"/>
<path d="M13.5652 15.6522L15.6522 1.49259C18.2521 0.527812 21.0643 0 24 0C34.3191 0 43.1162 6.513 46.5071 15.6522H13.5652Z" fill="#6DA544"/>
<path d="M0 23.9994C0 34.3186 6.51309 43.1156 15.6522 46.5066V1.49219C6.51309 4.88322 0 13.6802 0 23.9994Z" fill="#A2001D"/>
</g>
<defs>
<clipPath id="clip0_343_5095">
<rect width="48" height="48" fill="white"/>
</clipPath>
</defs>
</svg>
