<svg width="48" height="48" viewBox="0 0 48 48" fill="none" xmlns="http://www.w3.org/2000/svg">
<g clip-path="url(#clip0_343_5096)">
<path d="M24 48C37.2548 48 48 37.2548 48 24C48 10.7452 37.2548 0 24 0C10.7452 0 0 10.7452 0 24C0 37.2548 10.7452 48 24 48Z" fill="#F0F0F0"/>
<path d="M4.96125 9.38867C3.07603 11.8415 1.6545 14.6685 0.826782 17.7396H13.3122L4.96125 9.38867Z" fill="#0052B4"/>
<path d="M47.1732 17.7395C46.3455 14.6685 44.9239 11.8415 43.0388 9.38867L34.688 17.7395H47.1732Z" fill="#0052B4"/>
<path d="M0.826782 30.2598C1.65459 33.3308 3.07613 36.1579 4.96125 38.6105L13.3119 30.2598H0.826782Z" fill="#0052B4"/>
<path d="M38.6117 4.96073C36.1589 3.07552 33.332 1.65398 30.2608 0.826172V13.3115L38.6117 4.96073Z" fill="#0052B4"/>
<path d="M9.38831 43.0382C11.8411 44.9234 14.6681 46.3449 17.7392 47.1727V34.6875L9.38831 43.0382Z" fill="#0052B4"/>
<path d="M17.7391 0.826172C14.668 1.65398 11.841 3.07552 9.38831 4.96064L17.7391 13.3114V0.826172Z" fill="#0052B4"/>
<path d="M30.2609 47.1727C33.332 46.3449 36.159 44.9234 38.6117 43.0383L30.2609 34.6875V47.1727Z" fill="#0052B4"/>
<path d="M34.688 30.2598L43.0388 38.6106C44.9239 36.158 46.3455 33.3308 47.1732 30.2598H34.688Z" fill="#0052B4"/>
<path d="M47.7968 20.8696H27.1306H27.1305V0.203156C26.1057 0.06975 25.061 0 24 0C22.9388 0 21.8943 0.06975 20.8696 0.203156V20.8694V20.8695H0.203156C0.06975 21.8943 0 22.939 0 24C0 25.0612 0.06975 26.1057 0.203156 27.1304H20.8694H20.8695V47.7968C21.8943 47.9303 22.9388 48 24 48C25.061 48 26.1057 47.9303 27.1304 47.7968V27.1306V27.1305H47.7968C47.9303 26.1057 48 25.0612 48 24C48 22.939 47.9303 21.8943 47.7968 20.8696Z" fill="#D80027"/>
<path d="M30.2609 30.2618L40.9706 40.9714C41.4631 40.4791 41.933 39.9643 42.3813 39.4307L33.2124 30.2617H30.2609V30.2618Z" fill="#D80027"/>
<path d="M17.7391 30.2617H17.7389L7.02936 40.9713C7.52173 41.4638 8.03651 41.9337 8.57014 42.382L17.7391 33.2129V30.2617Z" fill="#D80027"/>
<path d="M17.7391 17.7392V17.739L7.02946 7.0293C6.5369 7.52167 6.06703 8.03645 5.61871 8.57008L14.7877 17.7391H17.7391V17.7392Z" fill="#D80027"/>
<path d="M30.2609 17.7396L40.9706 7.0298C40.4783 6.53723 39.9635 6.06736 39.4299 5.61914L30.2609 14.7882V17.7396Z" fill="#D80027"/>
</g>
<defs>
<clipPath id="clip0_343_5096">
<rect width="48" height="48" fill="white"/>
</clipPath>
</defs>
</svg>
