<svg width="48" height="48" viewBox="0 0 48 48" fill="none" xmlns="http://www.w3.org/2000/svg">
<g clip-path="url(#clip0_351_11776)">
<path d="M48 23.9999C48 22.9389 47.9303 21.8942 47.7968 20.8695H20.8693C15.9661 15.9666 7.02903 7.03005 7.02941 7.0293C-2.34314 16.4018 -2.34314 31.5977 7.02941 40.9705L20.8696 27.1304H47.7968C47.9302 26.1056 48 25.0609 48 23.9999Z" fill="black"/>
<path d="M47.9931 24.5469C47.9921 24.5932 47.9911 24.6397 47.9897 24.686C47.9909 24.6395 47.992 24.5932 47.9931 24.5469Z" fill="#F0F0F0"/>
<path d="M47.9697 25.2031C47.9675 25.249 47.9644 25.2946 47.9619 25.3404C47.9644 25.2947 47.9674 25.249 47.9697 25.2031Z" fill="#F0F0F0"/>
<path d="M47.9378 25.7246C47.933 25.792 47.9283 25.8594 47.9229 25.9266C47.9283 25.8594 47.9329 25.792 47.9378 25.7246Z" fill="#F0F0F0"/>
<path d="M47.8574 21.3848C47.8662 21.465 47.875 21.5452 47.883 21.6256C47.875 21.5451 47.8661 21.465 47.8574 21.3848Z" fill="#F0F0F0"/>
<path d="M47.9619 22.6621C47.9644 22.7079 47.9675 22.7535 47.9697 22.7994C47.9674 22.7535 47.9644 22.7078 47.9619 22.6621Z" fill="#F0F0F0"/>
<path d="M47.9897 23.3164C47.9911 23.3627 47.992 23.4092 47.9931 23.4555C47.9921 23.409 47.991 23.3627 47.9897 23.3164Z" fill="#F0F0F0"/>
<path d="M47.9229 22.0742C47.9283 22.1414 47.933 22.2088 47.9378 22.2762C47.9329 22.2088 47.9283 22.1414 47.9229 22.0742Z" fill="#F0F0F0"/>
<path d="M47.7969 20.8695C47.8077 20.9517 47.8172 21.0344 47.8271 21.1168C46.4026 9.22161 36.279 0 24.0001 0C17.3725 0 11.3724 2.6864 7.0293 7.02974L20.869 20.8696H47.7969V20.8695Z" fill="#D80027"/>
<path d="M47.7969 27.1301H20.869L7.0293 40.9699C11.3724 45.3132 17.3725 47.9997 24.0001 47.9997C36.279 47.9997 46.4027 38.7781 47.8271 26.8828C47.8172 26.9652 47.8075 27.0479 47.7969 27.1301Z" fill="#6DA544"/>
<path d="M47.883 26.375C47.875 26.4554 47.8662 26.5356 47.8574 26.6158C47.8662 26.5356 47.8751 26.4555 47.883 26.375Z" fill="#F0F0F0"/>
<path d="M47.9375 22.2754C47.9466 22.4037 47.9548 22.5324 47.9619 22.6613C47.9548 22.5324 47.9466 22.4037 47.9375 22.2754Z" fill="black"/>
<path d="M47.8271 21.1172C47.8379 21.2062 47.8481 21.2953 47.8577 21.3846C47.848 21.2953 47.8377 21.2062 47.8271 21.1172Z" fill="black"/>
<path d="M47.8828 21.625C47.8974 21.774 47.9107 21.9233 47.9226 22.0732C47.9108 21.9233 47.8975 21.7739 47.8828 21.625Z" fill="black"/>
<path d="M48 24C48 24.1825 47.9972 24.3643 47.9932 24.5457C47.9972 24.3642 48 24.1824 48 24Z" fill="black"/>
<path d="M47.9624 25.3398C47.9552 25.4687 47.947 25.5974 47.938 25.7257C47.947 25.5974 47.9551 25.4687 47.9624 25.3398Z" fill="black"/>
<path d="M47.9226 25.9277C47.9107 26.0775 47.8974 26.2269 47.8828 26.3758C47.8975 26.2269 47.9108 26.0775 47.9226 25.9277Z" fill="black"/>
<path d="M47.8577 26.6152C47.8481 26.7045 47.8379 26.7935 47.8271 26.8826C47.8377 26.7936 47.848 26.7045 47.8577 26.6152Z" fill="black"/>
<path d="M47.9932 23.4551C47.9972 23.6366 48 23.8185 48 24.0008C48 23.8185 47.9972 23.6366 47.9932 23.4551Z" fill="black"/>
<path d="M47.9702 22.7988C47.9787 22.9706 47.985 23.143 47.9899 23.3157C47.985 23.1429 47.9787 22.9706 47.9702 22.7988Z" fill="black"/>
<path d="M47.9894 24.6855C47.9845 24.8582 47.9782 25.0306 47.9697 25.2024C47.9784 25.0305 47.9846 24.8582 47.9894 24.6855Z" fill="black"/>
<path d="M47.977 22.9473H19.9875L5.61035 8.57227C5.14563 9.06239 4.64191 9.74676 4.33038 10.2342L18.0796 23.9906L4.31885 37.7517C4.59128 38.2364 5.18481 38.9538 5.60153 39.4206L19.9878 25.0343H47.9804C47.9953 24.6881 48 24.3405 48 23.9908C47.9999 23.5223 47.987 23.1768 47.977 22.9473Z" fill="#FFDA44"/>
<path d="M5.8298 29.1149V27.1046C7.83586 27.1046 9.46777 25.4725 9.46777 23.4666C9.46777 22.0473 8.31305 20.8927 6.89386 20.8927C5.92702 20.8927 5.14037 21.6793 5.14037 22.6463C5.14037 23.2646 5.64333 23.7676 6.26171 23.7676C6.61121 23.7676 6.89555 23.4831 6.89555 23.1336H8.90574C8.90574 24.5917 7.71961 25.7778 6.2618 25.7778C4.53502 25.7779 3.13037 24.373 3.13037 22.6465C3.13037 20.5712 4.81881 18.8828 6.89396 18.8828C9.42164 18.8828 11.4781 20.9393 11.4781 23.4669C11.478 26.581 8.94427 29.1149 5.8298 29.1149Z" fill="#FFDA44"/>
</g>
<defs>
<clipPath id="clip0_351_11776">
<rect width="48" height="48" fill="white"/>
</clipPath>
</defs>
</svg>
