<svg width="121" height="197" viewBox="0 0 121 197" fill="none" xmlns="http://www.w3.org/2000/svg">
<path d="M27.5528 192.328H25.7498C22.7812 192.328 20.582 192.045 19.1205 191.51C17.6908 192.045 15.4871 192.328 12.5185 192.328H8.96715C3.13467 192.328 0.220703 189.711 0.220703 184.449V179.58H3.88137V184.449C3.88137 186.107 4.38676 187.263 5.36567 187.856C6.13514 188.336 7.35536 188.56 9.07642 188.56H12.5231C13.502 188.56 14.2214 188.56 14.6949 188.532C13.5293 187.126 12.9465 185.522 12.9465 183.75C12.9465 183.019 13.0513 182.289 13.2652 181.585C14.0848 178.854 16.3659 177.137 19.1251 177.137C21.8842 177.137 24.1881 178.854 25.0122 181.585C25.2262 182.289 25.3309 183.019 25.3309 183.75C25.3309 185.522 24.7481 187.126 23.6098 188.532C24.0606 188.56 24.7754 188.56 25.7589 188.56H27.5619V192.332L27.5528 192.328ZM20.4227 186.673C21.4562 185.888 21.9889 184.846 21.9889 183.522C21.9889 181.804 20.9281 180.398 19.1251 180.398C17.322 180.398 16.2885 181.804 16.2885 183.522C16.2885 184.846 16.8212 185.888 17.8547 186.673C18.2782 187.011 18.7016 187.295 19.1251 187.518C19.5758 187.295 19.9992 187.011 20.4227 186.673ZM20.7414 174.684H17.4541V171.445H20.7414V174.684Z" fill="#003052"/>
<path d="M29.7473 197H26.46V193.735H29.7473V197ZM34.997 186.897C34.997 188.391 34.6008 189.629 33.8314 190.611C32.9572 191.766 31.737 192.328 30.198 192.328H27.0428V188.555H29.4012C30.6488 188.555 31.2817 187.628 31.2817 185.796V179.576H34.9924V186.893L34.997 186.897ZM34.7602 197H31.4456V193.735H34.7602V197Z" fill="#003052"/>
<path d="M44.595 189.738C44.595 192.328 43.9849 194.187 42.7374 195.338C41.5991 196.434 39.7415 196.968 37.1963 196.968V193.789C39.6367 193.789 40.857 192.552 40.857 190.076V179.58H44.595V189.738Z" fill="#003052"/>
<path d="M50.2271 174.752H57.0567C58.3679 174.752 59.4698 174.898 60.3622 175.182C61.2546 175.469 61.9694 175.862 62.5112 176.365C63.0531 176.867 63.4355 177.452 63.6677 178.128C63.8954 178.804 64.0138 179.534 64.0138 180.32C64.0138 181.156 63.8954 181.932 63.6586 182.636C63.4219 183.344 63.0303 183.956 62.493 184.472C61.9512 184.988 61.2364 185.395 60.344 185.691C59.4516 185.988 58.3588 186.134 57.0658 186.134H53.8467V192.346H50.2362V174.752H50.2271ZM56.9565 183.083C57.6121 183.083 58.1585 183.024 58.6047 182.901C59.0463 182.777 59.4015 182.599 59.6747 182.357C59.9433 182.12 60.1345 181.836 60.2393 181.508C60.344 181.179 60.3986 180.8 60.3986 180.375C60.3986 179.521 60.1527 178.877 59.661 178.438C59.1693 178.004 58.2678 177.785 56.961 177.785H53.8422V183.083H56.961H56.9565Z" fill="#EA0A8C"/>
<path d="M71.6491 190.058C72.3366 190.058 72.9149 189.912 73.3793 189.615C73.8437 189.318 74.258 188.802 74.6177 188.062L77.345 189.172C77.1492 189.665 76.8988 190.131 76.5938 190.565C76.2887 190.999 75.9108 191.378 75.451 191.698C74.9911 192.017 74.4493 192.273 73.8164 192.46C73.1835 192.648 72.455 192.744 71.6173 192.744C69.4728 192.744 67.8655 192.154 66.8047 190.981C65.7392 189.807 65.2065 188.126 65.2065 185.943C65.2065 184.86 65.3613 183.892 65.671 183.047C65.9806 182.202 66.4222 181.48 66.9868 180.891C67.5514 180.302 68.2298 179.854 69.0129 179.548C69.796 179.242 70.6657 179.091 71.6173 179.091C73.5842 179.091 75.0594 179.658 76.052 180.791C77.0445 181.923 77.5363 183.453 77.5363 185.376V186.756H68.6441C68.676 187.792 68.9401 188.601 69.4318 189.181C69.9235 189.766 70.6611 190.058 71.6446 190.058H71.6491ZM74.2307 184.49C74.2307 183.604 74.0167 182.914 73.5933 182.421C73.1653 181.928 72.4869 181.681 71.5535 181.681C71.0937 181.681 70.693 181.754 70.3515 181.905C70.0055 182.051 69.7186 182.252 69.4773 182.508C69.2406 182.764 69.0539 183.061 68.9264 183.394C68.7944 183.732 68.7215 184.097 68.7033 184.49H74.2307Z" fill="#EA0A8C"/>
<path d="M80.1226 179.484H83.4645V181.284C83.888 180.612 84.407 180.105 85.0126 179.767C85.6181 179.429 86.2556 179.26 86.9294 179.26C87.2572 179.26 87.5259 179.274 87.7399 179.297C87.9538 179.32 88.1405 179.352 88.3044 179.384L87.8855 182.512C87.494 182.412 87.0114 182.366 86.4377 182.366C86.0598 182.366 85.7001 182.412 85.3586 182.503C85.0171 182.595 84.703 182.764 84.4252 183.01C84.1293 183.275 83.9153 183.568 83.7741 183.896C83.633 184.225 83.5647 184.563 83.5647 184.906V192.346H80.1271V179.48L80.1226 179.484Z" fill="#EA0A8C"/>
<path d="M98.3529 183.526C98.1071 182.969 97.7656 182.517 97.333 182.17C96.9005 181.827 96.2904 181.654 95.5027 181.654C95.0428 181.654 94.6649 181.69 94.3599 181.763C94.0548 181.836 93.8181 181.932 93.6496 182.047C93.4766 182.161 93.3537 182.293 93.2808 182.439C93.208 182.586 93.1715 182.727 93.1715 182.86C93.1715 183.271 93.299 183.572 93.554 183.759C93.809 183.947 94.3052 184.111 95.0383 184.239L96.6592 184.508C98.3438 184.787 99.5322 185.244 100.22 185.874C100.907 186.509 101.253 187.372 101.253 188.473C101.253 189.82 100.78 190.866 99.8281 191.615C98.8765 192.364 97.5607 192.734 95.8715 192.734C94.3326 192.734 93.0486 192.506 92.015 192.045C90.9815 191.583 90.1893 190.962 89.6338 190.172L91.5506 188.149C92.1744 188.774 92.83 189.249 93.5267 189.578C94.2233 189.907 94.9882 190.072 95.8214 190.072C97.1828 190.072 97.8612 189.638 97.8612 188.765C97.8612 188.436 97.7519 188.149 97.5288 187.902C97.3057 187.655 96.8868 187.482 96.2631 187.386L94.4191 187.089C91.3867 186.596 89.8751 185.267 89.8751 183.097C89.8751 182.49 90.0117 181.937 90.2803 181.435C90.549 180.932 90.9314 180.512 91.4231 180.165C91.9149 179.818 92.4977 179.553 93.1806 179.365C93.859 179.178 94.6103 179.082 95.4299 179.082C96.4133 179.082 97.2374 179.196 97.9113 179.429C98.5806 179.658 99.1315 179.941 99.5595 180.279C99.9875 180.617 100.311 180.964 100.529 181.325C100.752 181.686 100.903 182.001 100.985 182.261L98.3575 183.517L98.3529 183.526Z" fill="#EA0A8C"/>
<path d="M103.584 174.752H107.122V177.858H103.584V174.752ZM103.635 179.484H107.072V192.351H103.635V179.484Z" fill="#EA0A8C"/>
<path d="M115.645 179.091C116.629 179.091 117.462 179.21 118.15 179.448C118.837 179.685 119.388 180.028 119.807 180.471C120.226 180.914 120.526 181.453 120.717 182.083C120.904 182.718 121 183.426 121 184.216V192.351H117.758V190.725C117.248 191.3 116.679 191.771 116.051 192.132C115.418 192.492 114.607 192.675 113.606 192.675C113.032 192.675 112.49 192.602 111.971 192.451C111.457 192.305 111.006 192.072 110.619 191.762C110.232 191.451 109.927 191.049 109.699 190.565C109.471 190.081 109.353 189.501 109.353 188.829C109.353 187.943 109.549 187.222 109.94 186.66C110.332 186.102 110.851 185.664 111.488 185.34C112.126 185.02 112.845 184.796 113.637 184.673C114.43 184.55 115.24 184.472 116.055 184.44L117.703 184.367V183.727C117.703 182.937 117.485 182.398 117.052 182.101C116.62 181.805 116.105 181.658 115.518 181.658C114.812 181.658 114.243 181.809 113.81 182.115C113.378 182.421 113.046 182.873 112.818 183.485L110.091 182.426C110.4 181.457 110.992 180.658 111.862 180.037C112.731 179.411 113.993 179.101 115.645 179.101V179.091ZM116.16 186.683C115.44 186.715 114.858 186.788 114.416 186.906C113.974 187.021 113.633 187.167 113.396 187.336C113.159 187.509 113 187.715 112.918 187.952C112.836 188.19 112.795 188.441 112.795 188.706C112.795 189.135 112.941 189.469 113.237 189.715C113.533 189.962 113.943 190.085 114.466 190.085C115.349 190.085 116.069 189.88 116.629 189.469C116.938 189.24 117.193 188.948 117.389 188.592C117.585 188.24 117.685 187.797 117.685 187.272V186.605L116.16 186.678V186.683Z" fill="#EA0A8C"/>
<path d="M97.5999 61.4073C97.3182 60.168 97.0553 58.9288 96.7548 57.7084C96.5482 56.8447 96.3228 55.981 96.0035 55.136C95.6279 54.1597 94.9519 53.4274 93.9942 52.9392C93.581 52.7139 93.1866 52.4135 92.7922 52.1506C92.6608 52.0567 92.5292 51.9441 92.379 51.8314C91.778 51.4371 91.0832 51.4559 90.8203 51.8877C90.5386 52.3384 90.8766 52.9767 91.5903 53.2959C91.9283 53.4461 92.2851 53.5401 92.6043 53.6715C93.6936 54.1221 94.2945 54.9482 94.3697 56.1124C94.4448 57.1263 93.7312 58.1965 92.7358 58.6472C92.3602 58.8161 91.9659 58.9288 91.6091 59.1354C91.271 59.3419 90.9893 59.6611 90.6513 59.9803C89.1113 56.9573 87.5901 53.9719 86.0501 50.9677C85.9374 50.9677 85.8436 50.9865 85.7309 51.0052C85.6558 51.3432 85.4492 51.7 85.5243 52.0192C85.6746 52.7139 85.8811 53.4274 86.2192 54.0658C86.7075 55.0234 87.2145 55.9434 87.2521 57.0512C87.2521 57.1451 87.252 57.2577 87.3083 57.3328C88.36 58.7973 89.3366 60.2995 90.4822 61.6514C90.8014 62.0269 91.6466 61.933 92.3227 62.0644C92.3227 62.0644 92.3227 62.1771 92.2851 62.271C90.5949 66.4956 88.9422 70.7202 87.2145 74.9073C86.8201 75.8461 86.3506 76.7474 85.8248 77.6111C85.2989 78.4748 84.6979 79.2822 84.7355 80.3899C84.7355 80.5589 84.6604 80.803 84.5477 80.9157C83.9468 81.5165 83.4397 82.1174 83.5899 83.0937C83.6275 83.3003 83.0453 83.7697 82.6697 83.8823C81.2988 84.2766 80.2847 85.084 79.2893 86.0228C78.801 86.4734 78.2 86.7927 77.5991 87.1118C77.1671 87.3372 76.8103 87.1869 76.6413 86.68C75.9089 84.333 75.1577 81.986 74.444 79.6202C74.106 78.5124 74.3126 77.4233 74.6882 76.3531C74.9887 75.4894 75.3643 74.6257 75.5521 73.7432C75.8714 72.2599 75.6647 70.908 74.1999 70.0067C74.0121 69.8941 73.9933 69.4622 73.8243 69.143C73.7679 68.8238 73.6928 68.5046 73.6928 68.1854C73.6928 67.8662 73.8056 67.5658 73.8056 67.2466C73.8056 66.289 73.2985 65.7634 72.3595 65.707C71.5895 65.6507 70.8195 65.707 70.5941 64.7119C70.5754 64.5992 70.1247 64.4866 69.8993 64.5241C68.3781 64.8058 66.8005 64.9371 65.392 65.4817C63.6455 66.1576 62.2934 65.8947 61.129 64.4865C60.3591 63.5289 59.5515 62.6089 58.8754 61.5762C58.1618 60.4684 57.9927 59.2292 58.481 57.9712C58.819 57.0887 58.8378 56.2438 58.4434 55.3613C58.1241 54.6854 58.3307 53.9907 58.6875 53.3523C59.5326 51.8502 60.6783 50.6485 62.0492 49.597C62.4061 49.3342 62.6877 48.9023 62.8192 48.4705C63.1948 47.3814 63.946 46.7055 64.9977 46.4239C66.0494 46.161 67.1386 46.0296 68.209 45.8794C69.5988 45.6916 70.9886 45.5602 72.3783 45.3912C72.998 45.3161 73.3923 45.5038 73.5801 46.1422C73.843 47.1561 74.5379 47.6443 75.5708 47.7194C75.8149 47.7382 76.0404 47.9635 76.2658 48.095C76.9606 48.508 77.6179 48.9774 78.3127 49.3717C78.6883 49.5783 78.9325 49.4093 79.0076 48.9586C79.0827 48.5644 79.233 48.1888 79.402 47.6256C80.6978 49.184 82.3693 49.015 83.9843 49.1089C84.5853 49.1464 85.1487 49.3342 85.9562 49.5032C85.7497 48.5644 85.6557 47.6443 85.3365 46.7994C85.2238 46.5365 84.5666 46.4051 84.1346 46.3863C83.0266 46.2924 82.5571 46.1046 82.0125 45.2973C83.5149 44.6026 85.0736 44.5462 86.7826 44.7152C86.0877 43.5323 85.4867 42.4621 84.7919 41.298C84.6604 41.6923 84.5289 41.9927 84.3787 42.4058C84.1345 42.0678 83.9656 41.7861 83.7402 41.5608C83.3646 41.1665 82.9139 41.0539 82.4444 41.3731C81.9936 41.6923 82.1627 42.0678 82.3317 42.4621C82.7449 43.3634 82.3317 44.1519 81.28 44.2646C80.5664 44.3397 80.0405 44.4899 80.0405 45.5038C79.7963 45.1095 79.6461 44.8842 79.4771 44.6214C78.801 45.0344 78.4255 44.565 78.0311 44.1332C77.6931 43.7389 77.3737 43.4572 76.8666 43.9642C76.7539 44.0768 76.2657 44.0017 76.0591 43.8515C75.2703 43.2882 74.5192 42.6687 73.768 42.0678C72.6787 41.1853 71.5143 41.1477 70.3312 41.8425C69.242 42.4809 68.3406 43.2883 67.8147 44.4524C67.7396 44.6214 67.5894 44.8279 67.4579 44.8655C66.6504 44.9969 65.8427 45.2034 65.0352 45.2034C63.9084 45.2034 63.0445 44.0956 63.1384 42.9878C63.2323 41.8613 64.3592 40.9412 65.4672 41.0914C65.8992 41.1478 66.3123 41.2792 66.7255 41.3731C67.4767 41.5233 67.8147 41.2417 67.5518 40.5282C67.3264 39.9086 66.8757 39.364 66.4625 38.6881C66.594 38.6318 66.8193 38.4816 67.0635 38.3689C68.8288 37.5428 70.6129 36.7166 72.3783 35.8717C72.6224 35.759 72.7914 35.4773 72.9979 35.2708C72.7538 35.0455 72.5097 34.7827 72.228 34.6137C72.0214 34.501 71.6834 34.5949 71.4581 34.501C71.1388 34.3695 70.6881 34.2006 70.6129 33.9565C70.519 33.6185 70.7069 33.1867 70.8571 32.8299C70.9322 32.6609 71.1763 32.5107 71.3641 32.4356C72.5284 31.985 73.6928 31.4781 74.8947 31.1401C76.0591 30.8021 77.261 30.9899 78.3878 31.4405C79.308 31.7973 80.172 32.2854 81.0735 32.6797C81.6744 32.9426 81.881 33.3181 81.618 33.9377C81.5805 34.0316 81.5805 34.163 81.5242 34.4446C83.8529 33.4307 85.5619 34.7451 87.4023 35.7027C80.9983 28.8494 73.1482 24.8876 63.8333 24.1178C59.9458 23.7986 56.265 24.0051 52.7719 24.7374C52.5465 24.775 52.3211 24.8313 52.0957 24.8876C51.8328 24.9439 51.5699 25.019 51.3258 25.0754C51.0253 25.1505 50.7437 25.2256 50.4432 25.3195C48.6778 25.8076 46.9876 26.4272 45.3349 27.1783C45.1096 27.2909 44.8842 27.3848 44.6589 27.4975C44.4523 27.5914 44.2645 27.6852 44.0579 27.7791C43.7762 27.9106 43.5133 28.0608 43.2504 28.1922C42.9874 28.3424 42.7058 28.4926 42.4428 28.6428C39.5319 30.3139 36.79 32.3981 34.2172 34.9328C33.9355 35.2145 33.6537 35.4962 33.372 35.7778C33.372 35.7778 33.372 35.7966 33.372 35.8153C33.4096 35.8904 33.4471 35.9468 33.4847 36.0219C34.0481 35.59 34.6116 35.1582 35.175 34.7263C35.7384 34.2945 36.2641 33.8251 36.8651 33.4871C37.128 33.3369 37.5599 33.4871 37.898 33.4871C37.7665 33.7687 37.729 34.1818 37.5037 34.3508C36.1515 35.3084 34.7618 36.2096 33.3908 37.1672C33.0903 37.3738 32.9025 37.7493 32.6584 38.0497C32.9401 38.2562 33.2594 38.444 33.5223 38.6881C33.6913 38.8383 33.8415 39.0636 33.9354 39.2889C34.0105 39.4955 33.973 39.7208 34.0106 39.9461C34.1608 39.9273 34.2359 39.9461 34.2546 39.9085C35.1749 38.7444 36.0388 37.5428 36.9966 36.435C37.56 35.7966 38.2549 35.2708 38.9122 34.7451C39.269 34.4634 39.7197 34.332 39.9075 34.9141C40.0765 35.421 40.3582 35.3835 40.7338 35.2896C41.1094 35.1957 41.4663 35.1206 41.9545 35.008C41.5414 36.1533 41.992 36.7541 43.194 36.9419C42.9123 37.2799 42.7621 37.5239 42.5367 37.6742C41.8606 38.1436 41.1469 38.5566 40.4896 39.026C40.3018 39.1762 40.2268 39.4767 40.0953 39.7208C39.5695 39.6269 39.0624 39.533 38.5366 39.4579C37.6163 39.3453 37.1656 39.6269 36.9966 40.4343C37.3158 40.3404 37.5975 40.2653 37.7102 40.2277C38.1609 40.5469 38.5365 40.7535 38.837 41.0351C38.9684 41.1665 39.0624 41.5796 39.0061 41.636C38.5178 41.9927 37.9731 42.3119 37.4285 42.5748C37.3346 42.6123 36.9966 42.387 36.9403 42.218C36.7525 41.6923 36.3769 41.7298 36.0952 41.9739C35.6444 42.387 35.1561 42.8376 34.8744 43.3633C34.311 44.396 33.5974 45.1846 32.4518 45.6165C31.5692 45.9357 31.4565 46.3488 31.494 47.2313C31.494 47.5692 31.3062 47.9448 31.0996 48.2264C30.7616 48.7146 30.2921 49.1089 29.9728 49.6158C29.5785 50.2354 29.0902 50.611 28.3766 50.7424C27.6817 50.8738 26.9868 51.0428 26.7426 51.8502C26.7238 51.9253 26.6488 52.0192 26.6113 52.0192C25.6535 52.0192 25.6347 52.8453 25.4469 53.4274C25.0337 54.6666 24.7332 55.9246 24.4327 57.1826C24.3951 57.3516 24.5078 57.5769 24.5642 57.7647C24.752 57.652 25.0149 57.5769 25.1276 57.4079C25.2966 57.1638 25.3341 56.8071 25.4844 56.5442C25.6534 56.2626 25.8788 56.0373 26.0854 55.7932C26.198 55.8308 26.2919 55.8683 26.4046 55.9246C26.3295 56.563 26.2731 57.2202 26.1792 57.8773C26.1041 58.3843 26.1417 58.7974 26.5549 59.1917C26.7614 59.3982 26.8554 59.7737 26.9305 60.0929C27.0244 60.4684 27.0056 60.8628 27.062 61.2383C27.2498 62.3836 27.738 62.6089 28.7897 62.1208C28.9024 62.0644 29.015 62.0081 29.1089 61.9518C29.6348 61.5575 30.0667 60.9379 30.8555 61.1256C32.0574 61.4073 33.3721 61.6326 34.1045 62.7028C34.912 63.9045 35.9637 64.4865 37.3534 64.7306C39.0624 65.0498 39.3254 66.2139 39.0624 67.8287C39.0249 67.9977 38.8182 68.1667 38.6492 68.2794C38.4426 68.4108 38.1797 68.5046 37.9356 68.5985C38.0295 68.6548 38.1234 68.7112 38.2173 68.7675C39.1375 68.805 40.0389 68.8426 40.9591 68.9177C41.2033 68.9365 41.5413 69.0491 41.6728 69.2369C42.2362 70.0255 43.0813 69.9879 43.8888 70.0067C44.4522 70.0067 44.8466 70.157 45.2035 70.6827C45.4852 71.0958 46.0486 71.3774 46.5181 71.6403C47.72 72.335 47.8514 72.7669 47.1753 73.9685C46.4054 75.3204 46.011 76.7662 45.9359 78.3058C45.9171 78.7564 45.8608 79.2259 45.8044 79.6765C45.673 80.8406 45.0908 81.648 43.8701 81.8921C42.9875 82.0611 42.4991 82.5868 42.2926 83.4693C42.1423 84.164 41.9733 84.8399 41.7292 85.4971C41.5789 85.8914 41.2785 86.2106 40.9405 86.511C40.9968 87.0555 40.7526 87.2996 40.1704 87.4873C39.4943 87.7127 39.3817 88.3511 39.4944 88.9895C39.7385 90.2475 40.4521 91.1863 41.5789 91.8059C41.8043 91.9373 42.0297 92.05 42.349 92.2002C41.748 92.5945 41.3348 92.2753 40.9779 92.0312C39.0812 90.7732 37.4661 89.196 36.3393 87.2245C35.4567 85.6661 34.6678 83.995 34.1608 82.2864C33.5598 80.2961 32.7147 78.5499 31.2311 77.0478C30.5926 76.4094 30.1794 75.5081 29.8226 74.6444C29.3155 73.4428 28.846 72.2411 27.9446 71.246C27.3624 70.5888 27.1371 69.8941 27.7568 69.1055C27.8883 68.9553 27.7944 68.6173 27.7756 68.3732C27.738 67.9414 27.6628 67.4908 27.6816 67.0589C27.6816 66.7397 27.8694 66.4205 27.9258 66.0825C28.0572 65.1062 28.0385 64.2049 27.2497 63.4163C26.7239 62.8906 26.3671 62.1583 26.0103 61.4824C25.6722 60.8064 25.4093 60.1493 24.7144 59.6986C24.3764 59.4733 24.245 58.8912 24.0196 58.4594C23.813 58.5345 23.7003 58.6284 23.6252 58.741C23.4937 58.9851 23.5313 59.2856 23.5125 59.5296C23.3623 63.7918 23.7754 67.9977 25.1839 72.0346C25.3717 72.5979 25.5782 73.1611 25.8036 73.7056V73.7432C26.5736 75.7523 27.4563 77.6486 28.4517 79.4136C28.4517 79.4136 28.4517 79.4512 28.4893 79.4699C28.6207 79.714 28.7709 79.9393 28.9024 80.1834C33.2406 87.6 39.5131 92.801 47.6824 95.7301C47.9641 95.824 48.2271 95.9179 48.5088 96.0117C48.6402 96.0681 48.7717 96.1056 48.9032 96.1432C49.3351 96.2746 49.7671 96.4248 50.199 96.5375C50.631 96.6501 51.0816 96.7816 51.5323 96.8942C51.7765 96.9693 52.0395 97.0257 52.3024 97.082C53.3916 97.3449 54.5184 97.5702 55.6828 97.7767C56.5842 97.9269 57.5045 98.002 58.4059 98.1147H62.6126C64.0587 97.9269 65.4859 97.7955 66.9132 97.5514C68.7537 97.2322 70.5565 96.7816 72.3031 96.2183C72.5472 96.1432 72.7914 96.0493 73.0543 95.9554C73.1858 95.9179 73.336 95.8615 73.4674 95.8052C73.6928 95.7301 73.9369 95.6362 74.1623 95.5423C74.5191 95.4109 74.8947 95.2607 75.2516 95.0917C75.4581 94.9978 75.646 94.9227 75.8525 94.8288C76.8854 94.3782 77.8807 93.8525 78.8573 93.2892C79.2705 93.0451 79.6837 92.801 80.0969 92.5569C80.0969 92.5569 80.1157 92.5569 80.1345 92.5381C82.482 91.0736 84.6416 89.3462 86.6135 87.3935C86.8952 87.1118 87.1957 86.8114 87.4774 86.511C88.0596 85.9102 88.6042 85.2718 89.1489 84.6334C89.3555 84.3893 89.5621 84.1264 89.7686 83.8635C89.9377 83.657 90.1066 83.4317 90.2756 83.2064C90.5573 82.8496 90.8014 82.4929 91.0644 82.1174C91.2709 81.817 91.4776 81.5166 91.6841 81.1974C91.6841 81.1974 91.7029 81.1598 91.7217 81.1598C91.8344 80.972 91.9659 80.7843 92.0786 80.5965C92.1161 80.5214 92.1537 80.465 92.1912 80.3899C92.548 79.8267 92.8673 79.2634 93.1678 78.7001C93.3181 78.4185 93.4871 78.1369 93.6185 77.8552C93.7688 77.5736 93.9002 77.2919 94.0504 76.9915C94.1631 76.7474 94.2758 76.522 94.3885 76.278C94.5012 76.0339 94.6138 75.8086 94.7077 75.5645C94.9143 75.0763 95.1209 74.5882 95.3087 74.1C95.4026 73.8559 95.4965 73.6118 95.5904 73.3677C95.7594 72.8983 95.9097 72.4289 96.0599 71.9595C96.0599 71.9219 96.06 71.8844 96.0975 71.8468C96.1726 71.6027 96.2477 71.3398 96.3229 71.077C96.398 70.8141 96.4731 70.5512 96.5294 70.3072C96.6045 70.0443 96.6608 69.7814 96.7172 69.5186C96.7547 69.3684 96.7923 69.1994 96.8299 69.0492C96.8862 68.8051 96.9426 68.561 96.9801 68.3169C97.0365 68.0728 97.0928 67.8287 97.1116 67.5846C97.2431 66.8336 97.3557 66.0825 97.4308 65.3315C97.4684 64.9935 97.506 64.6555 97.5623 64.3175C97.6186 63.8857 97.675 63.4727 97.7126 63.0596V61.4636C97.7126 61.4636 97.7126 61.4448 97.7126 61.4261L97.5999 61.4073ZM41.0718 40.2277C40.9779 40.2277 40.8841 40.1902 40.7902 40.1526C40.5273 40.0775 40.3019 39.9273 40.0765 39.702C40.8465 39.2514 41.5977 38.6881 42.593 39.1012C42.7057 39.1387 42.7997 39.1951 42.9123 39.2326C42.4428 39.9649 41.7479 40.3028 41.0906 40.2277H41.0718ZM44.1518 32.3417C43.5884 32.4356 43.4944 32.8487 43.3066 33.2805C43.194 33.5434 42.7808 33.6936 42.4803 33.8251C42.255 33.9377 41.9545 33.9565 41.7104 33.9377C41.4475 33.9189 41.1846 33.8063 40.9217 33.7124C41.0156 33.4308 41.0343 32.9613 41.2221 32.8675C41.7292 32.6421 42.0109 32.323 42.1987 31.816C42.4053 31.2715 43.5696 31.0274 44.0579 31.3654C44.2269 31.478 44.3021 31.7034 44.4335 31.9099C44.3208 32.0789 44.2457 32.3042 44.133 32.323L44.1518 32.3417ZM60.1712 31.9474C59.4951 32.2854 58.7815 32.3793 58.0491 32.2291C58.0115 32.1352 57.9927 32.0601 57.9739 31.9662C58.6312 31.7221 59.2885 31.4593 59.9646 31.2527C60.1148 31.2152 60.3215 31.3841 60.5093 31.4592C60.3966 31.6282 60.3403 31.8723 60.1712 31.9474ZM51.645 32.0038C51.1755 32.2854 50.8375 32.7548 50.368 33.0552C49.8234 33.412 49.1473 33.5434 48.6026 33.1304C48.2834 32.905 48.0018 32.3981 47.983 32.0038C47.983 31.7033 48.3773 31.3654 48.6402 31.1025C48.8093 30.9335 49.0909 30.9148 49.2787 30.7833C49.7294 30.5017 49.8234 30.2013 49.5042 29.6567C49.0159 28.8306 48.4336 28.5678 47.551 28.9245C47.4383 28.9621 47.2881 28.9245 46.9876 28.8869C48.3773 27.7228 49.7858 26.953 51.4573 26.8028C52.9784 26.6901 54.4808 26.615 56.002 26.5587C58.5373 26.4648 61.0727 26.4085 63.5892 26.3521C63.7582 26.3521 63.946 26.3897 64.1338 26.4272C64.1526 26.5023 64.1713 26.5774 64.2089 26.6525C63.0633 27.1783 61.9177 27.704 60.7909 28.2297C60.5467 28.3424 60.3027 28.4363 60.0586 28.549C60.2088 28.7743 60.359 29.0184 60.5281 29.2437C60.5844 29.3188 60.697 29.3188 60.7909 29.3563C60.7721 29.4314 60.7346 29.5065 60.7158 29.6004C60.359 29.6755 60.0022 29.7882 59.6453 29.8069C59.0256 29.8445 58.3871 29.8445 57.7673 29.8257C56.8283 29.8257 56.002 30.1074 55.1757 30.5956C54.6123 30.9335 53.8799 31.0274 53.2414 31.2715C52.6968 31.4781 52.1521 31.6846 51.6638 31.985L51.645 32.0038ZM91.3085 76.109C90.9705 76.5221 90.8391 77.1417 90.7076 77.6862C90.595 78.1368 90.67 78.6438 90.6137 79.132C90.501 80.1834 89.9 80.7092 88.7732 80.8218C88.454 80.6528 87.9845 80.5402 87.853 80.2773C87.7216 79.9957 87.8342 79.4887 88.0408 79.2258C88.6042 78.5499 89.055 77.9303 88.8108 76.9539C88.7545 76.7849 89.1113 76.3531 89.3742 76.2592C90.1818 75.9025 90.6888 75.3955 90.7451 74.4943C90.7451 74.344 90.933 74.1939 91.0269 74.0436C91.1396 74.1563 91.2898 74.2314 91.3837 74.3628C92.0222 75.2265 91.9471 75.3204 91.2898 76.1278L91.3085 76.109Z" fill="#F94395"/>
<path d="M89.5433 43.3253C88.9423 44.3955 89.8813 44.5269 90.5011 44.9025C90.8015 45.0902 91.2523 45.2968 91.3086 45.5784C91.4401 46.2356 91.0645 46.9679 91.4777 47.625C91.2335 47.6814 90.9142 47.8504 90.7264 47.7565C90.0879 47.4561 89.6184 46.9491 89.6559 46.1792C89.6935 45.5408 89.4306 45.109 88.9799 44.6772C88.6231 44.3204 88.3602 43.8323 88.1724 43.3441C87.9846 42.8747 88.0596 42.3302 88.6043 42.1236C89.2428 41.8795 89.1302 42.593 89.3743 42.8371C89.487 42.9497 89.4869 43.1375 89.5621 43.3253H89.5433Z" fill="#F70080"/>
<path d="M19.4185 49.4092H0.413086C4.93908 21.7144 30.1043 0.516113 60.4717 0.516113H61.2042C91.4213 0.516113 116.418 21.7519 120.624 49.4092H101.788C96.8112 31.3465 80.2471 18.0718 60.5844 18.0718C40.9217 18.0718 24.3764 31.3465 19.3997 49.4092H19.4185Z" fill="#003052"/>
<path d="M121 65.3877C119.685 78.8127 114.615 91.6931 106.258 102.677L61.8992 160.958C60.5846 162.967 57.5234 162.93 56.2463 160.902L13.747 102.208C5.82184 91.2613 1.10802 78.5686 0 65.3877H18.1979C20.4891 86.8113 38.6306 103.503 60.6784 103.503C82.7262 103.503 100.868 86.8113 103.159 65.3877H120.981H121Z" fill="#003052"/>
</svg>
