<svg width="37" height="60" viewBox="0 0 37 60" fill="none" xmlns="http://www.w3.org/2000/svg">
<path d="M8.41372 58.573H7.86314C6.95662 58.573 6.28508 58.4865 5.83877 58.3234C5.4022 58.4865 4.72927 58.573 3.82275 58.573H2.73827C0.957214 58.573 0.0673828 57.7738 0.0673828 56.167V54.6802H1.18523V56.167C1.18523 56.6733 1.33956 57.0262 1.63849 57.2075C1.87346 57.354 2.24608 57.4223 2.77164 57.4223H3.82414C4.12307 57.4223 4.34274 57.4223 4.48734 57.414C4.13141 56.9844 3.95344 56.4948 3.95344 55.9537C3.95344 55.7305 3.98542 55.5073 4.05077 55.2925C4.30103 54.4585 4.99761 53.934 5.84016 53.934C6.68272 53.934 7.38625 54.4585 7.6379 55.2925C7.70325 55.5073 7.73523 55.7305 7.73523 55.9537C7.73523 56.4948 7.55726 56.9844 7.20967 57.414C7.34732 57.4223 7.5656 57.4223 7.86592 57.4223H8.4165V58.5744L8.41372 58.573ZM6.23642 56.8463C6.55203 56.6064 6.7147 56.2884 6.7147 55.8839C6.7147 55.3595 6.39075 54.9299 5.84016 54.9299C5.28958 54.9299 4.97397 55.3595 4.97397 55.8839C4.97397 56.2884 5.13664 56.6064 5.45225 56.8463C5.58156 56.9495 5.71086 57.036 5.84016 57.1043C5.97781 57.036 6.10711 56.9495 6.23642 56.8463ZM6.33374 53.1851H5.3299V52.1962H6.33374V53.1851Z" fill="white"/>
<path d="M9.08392 59.9998H8.08008V59.0026H9.08392V59.9998ZM10.687 56.9146C10.687 57.3707 10.566 57.7487 10.3311 58.0486C10.0641 58.4014 9.69151 58.573 9.22156 58.573H8.25804V57.4209H8.97825C9.35921 57.4209 9.55247 57.1378 9.55247 56.5785V54.6788H10.6856V56.9132L10.687 56.9146ZM10.6147 59.9998H9.60252V59.0026H10.6147V59.9998Z" fill="white"/>
<path d="M13.6179 57.7822C13.6179 58.5731 13.4315 59.1407 13.0506 59.4922C12.703 59.827 12.1357 59.9901 11.3585 59.9901V59.0194C12.1038 59.0194 12.4764 58.6414 12.4764 57.8855V54.6803H13.6179V57.7822Z" fill="white"/>
<path d="M15.3378 53.2059H17.4233C17.8237 53.2059 18.1602 53.2506 18.4327 53.337C18.7052 53.4249 18.9235 53.5449 19.089 53.6983C19.2544 53.8517 19.3712 54.0302 19.4421 54.2367C19.5116 54.4431 19.5478 54.6662 19.5478 54.9061C19.5478 55.1614 19.5116 55.3985 19.4393 55.6133C19.367 55.8295 19.2475 56.0164 19.0834 56.174C18.9179 56.3316 18.6997 56.4557 18.4272 56.5464C18.1546 56.637 17.821 56.6817 17.4261 56.6817H16.4431V58.5785H15.3405V53.2059H15.3378ZM17.3927 55.75C17.5929 55.75 17.7598 55.7318 17.896 55.6942C18.0309 55.6565 18.1393 55.6021 18.2228 55.5282C18.3048 55.4557 18.3632 55.3692 18.3952 55.2688C18.4272 55.1684 18.4438 55.0526 18.4438 54.9229C18.4438 54.6621 18.3688 54.4654 18.2186 54.3315C18.0684 54.199 17.7931 54.1321 17.3941 54.1321H16.4417V55.75H17.3941H17.3927Z" fill="#F94395"/>
<path d="M21.8795 57.8796C22.0894 57.8796 22.266 57.8349 22.4078 57.7443C22.5496 57.6536 22.6761 57.496 22.786 57.2701L23.6188 57.609C23.559 57.7596 23.4826 57.9019 23.3894 58.0344C23.2962 58.1669 23.1808 58.2827 23.0404 58.3803C22.9 58.4779 22.7345 58.556 22.5413 58.6132C22.348 58.6704 22.1256 58.6997 21.8697 58.6997C21.2149 58.6997 20.7241 58.5198 20.4001 58.1613C20.0748 57.8029 19.9121 57.2896 19.9121 56.6229C19.9121 56.2923 19.9594 55.9967 20.0539 55.7386C20.1485 55.4806 20.2833 55.2602 20.4557 55.0803C20.6281 54.9004 20.8353 54.7637 21.0745 54.6702C21.3136 54.5768 21.5792 54.5308 21.8697 54.5308C22.4704 54.5308 22.9209 54.7037 23.224 55.0496C23.5271 55.3955 23.6772 55.8628 23.6772 56.4499V56.8712H20.9618C20.9716 57.1878 21.0522 57.4347 21.2024 57.6118C21.3525 57.7903 21.5778 57.8796 21.8781 57.8796H21.8795ZM22.6678 56.1794C22.6678 55.9088 22.6025 55.6982 22.4732 55.5475C22.3425 55.3969 22.1353 55.3216 21.8503 55.3216C21.7098 55.3216 21.5875 55.3439 21.4832 55.3899C21.3776 55.4346 21.29 55.4959 21.2163 55.574C21.144 55.6521 21.087 55.7428 21.048 55.8446C21.0077 55.9478 20.9855 56.0594 20.9799 56.1794H22.6678Z" fill="#F94395"/>
<path d="M24.4669 54.6511H25.4874V55.2006C25.6167 54.9956 25.7752 54.8408 25.9602 54.7376C26.1451 54.6344 26.3397 54.5828 26.5455 54.5828C26.6456 54.5828 26.7276 54.5869 26.793 54.5939C26.8583 54.6009 26.9153 54.6107 26.9654 54.6204L26.8375 55.5758C26.7179 55.5451 26.5705 55.5312 26.3954 55.5312C26.28 55.5312 26.1701 55.5451 26.0658 55.573C25.9616 55.6009 25.8656 55.6525 25.7808 55.7279C25.6904 55.8088 25.6251 55.898 25.582 55.9984C25.5389 56.0989 25.518 56.2021 25.518 56.3067V58.5787H24.4683V54.6497L24.4669 54.6511Z" fill="#F94395"/>
<path d="M30.0339 55.8855C29.9588 55.7154 29.8545 55.5773 29.7224 55.4713C29.5904 55.3667 29.404 55.3137 29.1635 55.3137C29.0231 55.3137 28.9077 55.3249 28.8145 55.3472C28.7214 55.3695 28.6491 55.3988 28.5976 55.4336C28.5448 55.4685 28.5073 55.509 28.485 55.5536C28.4628 55.5982 28.4516 55.6415 28.4516 55.6819C28.4516 55.8074 28.4906 55.8995 28.5684 55.9567C28.6463 56.0139 28.7979 56.0641 29.0217 56.1031L29.5167 56.1854C30.0311 56.2705 30.394 56.41 30.6039 56.6025C30.8139 56.7963 30.9195 57.0599 30.9195 57.3961C30.9195 57.8075 30.7749 58.1269 30.4844 58.3557C30.1938 58.5844 29.792 58.6974 29.2761 58.6974C28.8062 58.6974 28.4141 58.6276 28.0985 58.4868C27.7829 58.3459 27.541 58.1562 27.3713 57.9149L27.9567 57.297C28.1472 57.4881 28.3474 57.6332 28.5601 57.7336C28.7728 57.834 29.0064 57.8842 29.2608 57.8842C29.6766 57.8842 29.8837 57.7517 29.8837 57.4853C29.8837 57.3849 29.8504 57.297 29.7822 57.2217C29.7141 57.1464 29.5862 57.0934 29.3957 57.0641L28.8326 56.9735C27.9066 56.8228 27.445 56.4169 27.445 55.7544C27.445 55.5689 27.4867 55.4002 27.5688 55.2467C27.6508 55.0933 27.7676 54.965 27.9178 54.859C28.0679 54.753 28.2459 54.6721 28.4544 54.6149C28.6616 54.5577 28.891 54.5284 29.1413 54.5284C29.4416 54.5284 29.6932 54.5633 29.899 54.6344C30.1034 54.7042 30.2716 54.7907 30.4023 54.8939C30.533 54.9971 30.6317 55.1031 30.6985 55.2133C30.7666 55.3235 30.8125 55.4197 30.8375 55.4992L30.0353 55.8828L30.0339 55.8855Z" fill="#F94395"/>
<path d="M31.6315 53.2058H32.7118V54.1542H31.6315V53.2058ZM31.6468 54.6508H32.6965V58.5798H31.6468V54.6508Z" fill="#F94395"/>
<path d="M35.3144 54.5308C35.6147 54.5308 35.8692 54.567 36.0791 54.6396C36.2891 54.7121 36.4573 54.8167 36.5852 54.952C36.7131 55.0873 36.8049 55.2519 36.8633 55.4443C36.9203 55.6382 36.9495 55.8544 36.9495 56.0957V58.5797H35.9596V58.0832C35.8038 58.259 35.63 58.4026 35.4382 58.5128C35.2449 58.623 34.9974 58.6788 34.6915 58.6788C34.5164 58.6788 34.3509 58.6565 34.1924 58.6104C34.0353 58.5658 33.8976 58.4947 33.7795 58.3998C33.6613 58.305 33.5681 58.1822 33.4986 58.0344C33.4291 57.8866 33.3929 57.7094 33.3929 57.5044C33.3929 57.2338 33.4527 57.0134 33.5723 56.8419C33.6919 56.6717 33.8504 56.5378 34.045 56.4388C34.2397 56.3412 34.4593 56.2728 34.7013 56.2352C34.9432 56.1975 35.1907 56.1738 35.4396 56.164L35.9429 56.1417V55.9464C35.9429 55.7051 35.8761 55.5406 35.744 55.4499C35.612 55.3592 35.4548 55.3146 35.2755 55.3146C35.06 55.3146 34.8862 55.3606 34.7541 55.4541C34.622 55.5475 34.5205 55.6856 34.451 55.8725L33.6182 55.5489C33.7127 55.2532 33.8935 55.0092 34.159 54.8195C34.4246 54.6284 34.8097 54.5335 35.3144 54.5335V54.5308ZM35.4715 56.8489C35.2519 56.8586 35.0739 56.8809 34.939 56.9172C34.8042 56.9521 34.6999 56.9967 34.6276 57.0483C34.5553 57.1013 34.5066 57.1641 34.4816 57.2366C34.4566 57.3091 34.4441 57.3858 34.4441 57.4667C34.4441 57.5978 34.4885 57.6997 34.5789 57.775C34.6693 57.8503 34.7944 57.8879 34.9543 57.8879C35.224 57.8879 35.4437 57.8252 35.6147 57.6997C35.7093 57.6299 35.7871 57.5407 35.8469 57.4319C35.9067 57.3245 35.9373 57.1892 35.9373 57.0288V56.8251L35.4715 56.8475V56.8489Z" fill="#F94395"/>
<path d="M29.8039 18.5945C29.7179 18.2161 29.6376 17.8376 29.5459 17.465C29.4828 17.2012 29.414 16.9375 29.3165 16.6795C29.2018 16.3813 28.9953 16.1577 28.7029 16.0086C28.5767 15.9398 28.4563 15.8481 28.3358 15.7678C28.2957 15.7391 28.2555 15.7047 28.2096 15.6703C28.0261 15.5499 27.814 15.5557 27.7337 15.6875C27.6477 15.8251 27.7509 16.0201 27.9688 16.1175C28.072 16.1634 28.181 16.1921 28.2785 16.2322C28.6111 16.3698 28.7946 16.6221 28.8175 16.9776C28.8405 17.2872 28.6226 17.614 28.3186 17.7516C28.2039 17.8032 28.0835 17.8377 27.9745 17.9007C27.8713 17.9638 27.7853 18.0613 27.682 18.1587C27.2118 17.2356 26.7473 16.324 26.277 15.4066C26.2426 15.4066 26.2139 15.4123 26.1795 15.418C26.1566 15.5213 26.0935 15.6302 26.1164 15.7277C26.1623 15.9398 26.2254 16.1577 26.3286 16.3526C26.4777 16.645 26.6326 16.926 26.644 17.2643C26.644 17.2929 26.644 17.3273 26.6612 17.3503C26.9824 17.7975 27.2806 18.2562 27.6304 18.669C27.7279 18.7837 27.986 18.755 28.1925 18.7952C28.1925 18.7952 28.1924 18.8296 28.181 18.8582C27.6648 20.1483 27.1602 21.4384 26.6326 22.717C26.5121 23.0037 26.3688 23.2789 26.2082 23.5426C26.0476 23.8064 25.8641 24.0529 25.8756 24.3912C25.8756 24.4428 25.8526 24.5173 25.8182 24.5517C25.6347 24.7352 25.4799 24.9187 25.5257 25.2168C25.5372 25.2799 25.3594 25.4233 25.2447 25.4577C24.8261 25.5781 24.5164 25.8246 24.2125 26.1113C24.0634 26.2489 23.8798 26.3464 23.6963 26.4438C23.5644 26.5126 23.4555 26.4668 23.4039 26.312C23.1802 25.5953 22.9508 24.8786 22.7329 24.1561C22.6297 23.8178 22.6927 23.4853 22.8074 23.1585C22.8992 22.8947 23.0139 22.631 23.0713 22.3615C23.1687 21.9085 23.1056 21.4957 22.6583 21.2205C22.601 21.1861 22.5952 21.0542 22.5436 20.9567C22.5264 20.8593 22.5035 20.7618 22.5035 20.6643C22.5035 20.5669 22.5379 20.4751 22.5379 20.3776C22.5379 20.0852 22.3831 19.9247 22.0963 19.9075C21.8612 19.8903 21.6261 19.9075 21.5573 19.6036C21.5515 19.5692 21.4139 19.5348 21.3451 19.5463C20.8805 19.6323 20.3988 19.6724 19.9687 19.8387C19.4354 20.0451 19.0225 19.9648 18.6669 19.5348C18.4318 19.2424 18.1852 18.9614 17.9787 18.6461C17.7608 18.3078 17.7092 17.9294 17.8583 17.5452C17.9615 17.2757 17.9672 17.0177 17.8468 16.7483C17.7493 16.5418 17.8124 16.3297 17.9214 16.1348C18.1794 15.6761 18.5293 15.3091 18.9479 14.988C19.0569 14.9078 19.1429 14.7759 19.183 14.644C19.2977 14.3114 19.5271 14.105 19.8483 14.019C20.1694 13.9388 20.502 13.8986 20.8289 13.8528C21.2533 13.7954 21.6777 13.7553 22.1021 13.7037C22.2913 13.6808 22.4117 13.7381 22.4691 13.933C22.5494 14.2427 22.7615 14.3917 23.077 14.4147C23.1515 14.4204 23.2204 14.4892 23.2892 14.5293C23.5014 14.6555 23.7021 14.7988 23.9143 14.9192C24.029 14.9823 24.1035 14.9307 24.1264 14.7931C24.1494 14.6727 24.1953 14.558 24.2469 14.386C24.6426 14.8619 25.153 14.8103 25.6462 14.839C25.8297 14.8504 26.0017 14.9078 26.2483 14.9594C26.1853 14.6727 26.1566 14.3917 26.0591 14.1337C26.0247 14.0534 25.824 14.0133 25.6921 14.0076C25.3537 13.9789 25.2104 13.9216 25.044 13.675C25.5028 13.4629 25.9788 13.4457 26.5007 13.4973C26.2885 13.1361 26.105 12.8092 25.8928 12.4538C25.8526 12.5742 25.8125 12.6659 25.7666 12.792C25.692 12.6888 25.6405 12.6028 25.5716 12.534C25.4569 12.4136 25.3193 12.3792 25.1759 12.4767C25.0383 12.5742 25.0899 12.6888 25.1415 12.8092C25.2677 13.0845 25.1415 13.3253 24.8204 13.3597C24.6024 13.3826 24.4419 13.4285 24.4419 13.7381C24.3673 13.6177 24.3214 13.5489 24.2698 13.4686C24.0634 13.5948 23.9487 13.4514 23.8283 13.3195C23.725 13.1991 23.6275 13.1131 23.4727 13.2679C23.4383 13.3023 23.2892 13.2794 23.2261 13.2335C22.9852 13.0615 22.7558 12.8723 22.5264 12.6888C22.1938 12.4194 21.8383 12.4079 21.477 12.62C21.1443 12.815 20.8691 13.0615 20.7085 13.417C20.6856 13.4686 20.6397 13.5317 20.5995 13.5432C20.3529 13.5833 20.1063 13.6464 19.8597 13.6464C19.5156 13.6464 19.2518 13.3081 19.2805 12.9698C19.3092 12.6258 19.6533 12.3448 19.9917 12.3907C20.1236 12.4079 20.2497 12.448 20.3759 12.4767C20.6053 12.5226 20.7085 12.4366 20.6282 12.2187C20.5594 12.0295 20.4217 11.8632 20.2956 11.6568C20.3357 11.6396 20.4045 11.5937 20.4791 11.5593C21.0182 11.307 21.563 11.0547 22.1021 10.7967C22.1766 10.7623 22.2282 10.6763 22.2913 10.6133C22.2167 10.5444 22.1422 10.4642 22.0562 10.4126C21.9931 10.3782 21.8899 10.4068 21.8211 10.3782C21.7236 10.338 21.5859 10.2864 21.563 10.2119C21.5343 10.1087 21.5917 9.97682 21.6375 9.86789C21.6605 9.81628 21.735 9.77042 21.7924 9.74748C22.1479 9.60988 22.5035 9.45507 22.8705 9.35186C23.2261 9.24866 23.5931 9.30599 23.9372 9.4436C24.2182 9.55254 24.482 9.70162 24.7573 9.82202C24.9408 9.9023 25.0039 10.017 24.9236 10.2062C24.9121 10.2348 24.9121 10.275 24.8949 10.361C25.606 10.0514 26.1279 10.4527 26.6899 10.7451C24.7344 8.65235 22.3372 7.44255 19.4927 7.20747C18.3056 7.11 17.1816 7.17308 16.1149 7.39669C16.0461 7.40816 15.9772 7.42535 15.9084 7.44255C15.8281 7.45975 15.7479 7.48269 15.6733 7.49989C15.5816 7.52282 15.4955 7.54576 15.4038 7.57443C14.8647 7.7235 14.3486 7.91271 13.8439 8.14205C13.7751 8.17646 13.7063 8.20513 13.6375 8.23953C13.5744 8.2682 13.517 8.29687 13.4539 8.32554C13.3679 8.36567 13.2876 8.41154 13.2073 8.45168C13.1271 8.49755 13.041 8.54341 12.9607 8.58928C12.0718 9.09957 11.2346 9.73601 10.4489 10.5101C10.3629 10.5961 10.2768 10.6821 10.1908 10.7681C10.1908 10.7681 10.1908 10.7738 10.1908 10.7795C10.2023 10.8025 10.2138 10.8197 10.2252 10.8426C10.3973 10.7107 10.5693 10.5789 10.7414 10.447C10.9134 10.3151 11.074 10.1718 11.2575 10.0686C11.3378 10.0227 11.4697 10.0686 11.5729 10.0686C11.5327 10.1546 11.5213 10.2807 11.4525 10.3323C11.0396 10.6247 10.6152 10.8999 10.1966 11.1924C10.1048 11.2554 10.0474 11.3701 9.97289 11.4618C10.0589 11.5249 10.1564 11.5822 10.2367 11.6568C10.2883 11.7026 10.3342 11.7715 10.3629 11.8403C10.3858 11.9033 10.3743 11.9721 10.3858 12.0409C10.4317 12.0352 10.4546 12.0409 10.4603 12.0295C10.7413 11.674 11.0052 11.307 11.2976 10.9688C11.4697 10.7738 11.6819 10.6133 11.8826 10.4527C11.9916 10.3667 12.1292 10.3266 12.1865 10.5043C12.2381 10.6591 12.3242 10.6477 12.4389 10.619C12.5536 10.5903 12.6625 10.5674 12.8116 10.533C12.6855 10.8827 12.8231 11.0662 13.1901 11.1236C13.1041 11.2268 13.0582 11.3013 12.9894 11.3472C12.783 11.4905 12.565 11.6166 12.3643 11.76C12.307 11.8058 12.284 11.8976 12.2439 11.9721C12.0833 11.9435 11.9285 11.9148 11.7679 11.8919C11.4869 11.8575 11.3492 11.9435 11.2976 12.19C11.3951 12.1613 11.4811 12.1384 11.5156 12.1269C11.6532 12.2244 11.7679 12.2875 11.8596 12.3735C11.8998 12.4136 11.9285 12.5398 11.9113 12.557C11.7622 12.6659 11.5958 12.7634 11.4295 12.8436C11.4008 12.8551 11.2976 12.7863 11.2804 12.7347C11.2231 12.5742 11.1084 12.5856 11.0224 12.6602C10.8847 12.7863 10.7356 12.9239 10.6496 13.0844C10.4775 13.3998 10.2596 13.6406 9.90981 13.7725C9.64028 13.87 9.60586 13.9961 9.61733 14.2656C9.61733 14.3688 9.55997 14.4835 9.49689 14.5695C9.39366 14.7186 9.2503 14.839 9.15281 14.9938C9.03238 15.183 8.88329 15.2976 8.66536 15.3378C8.45317 15.3779 8.24095 15.4295 8.1664 15.6761C8.16067 15.699 8.13776 15.7277 8.12629 15.7277C7.83381 15.7277 7.82808 15.9799 7.77073 16.1577C7.64457 16.5361 7.55279 16.9203 7.46103 17.3044C7.44956 17.356 7.48397 17.4248 7.50118 17.4822C7.55852 17.4478 7.63881 17.4248 7.67321 17.3732C7.72483 17.2987 7.7363 17.1897 7.78218 17.1095C7.83379 17.0235 7.90261 16.9547 7.9657 16.8801C8.00011 16.8916 8.02877 16.9031 8.06318 16.9203C8.04024 17.1152 8.02304 17.3159 7.99436 17.5166C7.97142 17.6714 7.9829 17.7975 8.10907 17.9179C8.17215 17.981 8.20083 18.0957 8.22377 18.1931C8.25244 18.3078 8.24671 18.4282 8.26392 18.5429C8.32127 18.8926 8.47036 18.9614 8.79151 18.8124C8.82592 18.7952 8.86032 18.778 8.889 18.7608C9.04957 18.6404 9.18147 18.4511 9.42233 18.5085C9.78936 18.5945 10.1908 18.6633 10.4145 18.9901C10.6611 19.3571 10.9822 19.5348 11.4066 19.6093C11.9285 19.7068 12.0088 20.0623 11.9285 20.5554C11.917 20.607 11.8539 20.6586 11.8023 20.693C11.7392 20.7331 11.6589 20.7618 11.5844 20.7905C11.613 20.8077 11.6417 20.8249 11.6704 20.8421C11.9514 20.8535 12.2267 20.865 12.5077 20.8879C12.5822 20.8937 12.6855 20.9281 12.7256 20.9854C12.8976 21.2262 13.1557 21.2148 13.4023 21.2205C13.5743 21.2205 13.6948 21.2664 13.8038 21.4269C13.8898 21.553 14.0618 21.6391 14.2052 21.7193C14.5722 21.9315 14.6124 22.0633 14.4059 22.4303C14.1708 22.8431 14.0504 23.2846 14.0274 23.7548C14.0217 23.8924 14.0045 24.0357 13.9873 24.1733C13.9471 24.5288 13.7694 24.7754 13.3966 24.8499C13.1271 24.9015 12.9779 25.062 12.9149 25.3315C12.869 25.5437 12.8174 25.7501 12.7428 25.9507C12.6969 26.0711 12.6052 26.1686 12.502 26.2604C12.5192 26.4266 12.4446 26.5012 12.2668 26.5585C12.0604 26.6273 12.026 26.8223 12.0604 27.0172C12.1349 27.4014 12.3528 27.688 12.6969 27.8773C12.7657 27.9174 12.8346 27.9518 12.9321 27.9977C12.7486 28.1181 12.6224 28.0206 12.5134 27.9461C11.9342 27.5619 11.441 27.0803 11.0969 26.4782C10.8274 26.0023 10.5865 25.4921 10.4317 24.9703C10.2482 24.3625 9.99009 23.8293 9.53703 23.3706C9.34205 23.1757 9.21588 22.9004 9.10692 22.6367C8.95208 22.2697 8.80871 21.9028 8.53344 21.5989C8.35566 21.3982 8.28686 21.1861 8.4761 20.9453C8.51625 20.8994 8.48758 20.7962 8.48184 20.7217C8.47038 20.5898 8.44741 20.4522 8.45314 20.3203C8.45314 20.2228 8.51049 20.1254 8.5277 20.0222C8.56784 19.724 8.56212 19.4488 8.32125 19.208C8.16068 19.0474 8.05173 18.8238 7.94277 18.6174C7.83954 18.411 7.75925 18.2103 7.54706 18.0727C7.44384 18.0039 7.4037 17.8262 7.33488 17.6943C7.2718 17.7172 7.23737 17.7459 7.21443 17.7803C7.17429 17.8548 7.18576 17.9466 7.18003 18.0211C7.13415 19.3227 7.26032 20.607 7.69044 21.8397C7.74778 22.0117 7.81084 22.1837 7.87966 22.35V22.3615C8.11479 22.975 8.38434 23.5541 8.68829 24.093C8.68829 24.093 8.6883 24.1045 8.69977 24.1102C8.73992 24.1848 8.78578 24.2536 8.82592 24.3281C10.1507 26.5929 12.0661 28.1811 14.5608 29.0756C14.6468 29.1042 14.7271 29.1329 14.8131 29.1616C14.8532 29.1788 14.8934 29.1903 14.9335 29.2017C15.0654 29.2419 15.1973 29.2877 15.3292 29.3221C15.4611 29.3565 15.5987 29.3967 15.7364 29.4311C15.8109 29.454 15.8912 29.4712 15.9715 29.4884C16.3042 29.5687 16.6482 29.6375 17.0038 29.7005C17.2791 29.7464 17.5601 29.7693 17.8354 29.8037H19.1199C19.5615 29.7464 19.9974 29.7063 20.4332 29.6317C20.9952 29.5343 21.5458 29.3967 22.0791 29.2247C22.1537 29.2017 22.2282 29.173 22.3085 29.1444C22.3487 29.1329 22.3945 29.1157 22.4347 29.0985C22.5035 29.0756 22.578 29.0469 22.6468 29.0182C22.7558 28.9781 22.8705 28.9322 22.9795 28.8806C23.0426 28.852 23.0999 28.829 23.163 28.8004C23.4784 28.6628 23.7823 28.5022 24.0806 28.3302C24.2067 28.2557 24.3329 28.1811 24.4591 28.1066C24.4591 28.1066 24.4648 28.1066 24.4706 28.1009C25.1874 27.6536 25.8469 27.1261 26.449 26.5298C26.5351 26.4438 26.6268 26.3521 26.7129 26.2604C26.8906 26.0769 27.057 25.8819 27.2233 25.687C27.2864 25.6125 27.3494 25.5322 27.4125 25.4519C27.4641 25.3888 27.5157 25.32 27.5673 25.2512C27.6534 25.1423 27.7279 25.0334 27.8082 24.9187C27.8713 24.827 27.9344 24.7352 27.9975 24.6377C27.9975 24.6377 28.0032 24.6263 28.0089 24.6263C28.0433 24.5689 28.0835 24.5116 28.1179 24.4543C28.1294 24.4313 28.1408 24.4141 28.1523 24.3912C28.2613 24.2192 28.3588 24.0472 28.4505 23.8752C28.4964 23.7892 28.548 23.7032 28.5882 23.6172C28.634 23.5312 28.6742 23.4451 28.7201 23.3534C28.7545 23.2789 28.7889 23.2101 28.8233 23.1355C28.8577 23.061 28.8921 22.9922 28.9208 22.9177C28.9838 22.7686 29.0469 22.6195 29.1043 22.4704C29.1329 22.3959 29.1616 22.3214 29.1903 22.2468C29.2419 22.1035 29.2878 21.9601 29.3337 21.8168C29.3337 21.8053 29.3337 21.7939 29.3452 21.7824C29.3681 21.7079 29.391 21.6276 29.414 21.5473C29.4369 21.467 29.4598 21.3868 29.4771 21.3122C29.5 21.232 29.5172 21.1517 29.5344 21.0714C29.5459 21.0256 29.5573 20.974 29.5688 20.9281C29.586 20.8535 29.6032 20.779 29.6147 20.7045C29.6319 20.6299 29.6491 20.5554 29.6548 20.4809C29.695 20.2515 29.7294 20.0222 29.7523 19.7928C29.7638 19.6896 29.7753 19.5864 29.7925 19.4832C29.8097 19.3513 29.8269 19.2252 29.8384 19.0991V18.6117C29.8384 18.6117 29.8384 18.606 29.8384 18.6002L29.8039 18.5945ZM12.5421 12.1269C12.5134 12.1269 12.4848 12.1155 12.4561 12.104C12.3758 12.0811 12.307 12.0352 12.2382 11.9664C12.4733 11.8288 12.7027 11.6568 13.0066 11.7829C13.041 11.7944 13.0697 11.8116 13.1041 11.8231C12.9607 12.0467 12.7485 12.1499 12.5478 12.1269H12.5421ZM13.4826 9.71881C13.3106 9.74747 13.2819 9.87361 13.2245 10.0055C13.1901 10.0858 13.064 10.1316 12.9722 10.1718C12.9034 10.2062 12.8116 10.2119 12.7371 10.2062C12.6568 10.2004 12.5765 10.166 12.4962 10.1374C12.5249 10.0514 12.5306 9.90801 12.588 9.87935C12.7428 9.81054 12.8288 9.71307 12.8862 9.55826C12.9493 9.39199 13.3048 9.31746 13.4539 9.42066C13.5055 9.45506 13.5285 9.52387 13.5686 9.58694C13.5342 9.63855 13.5113 9.70735 13.4769 9.71308L13.4826 9.71881ZM18.3744 9.5984C18.168 9.70161 17.95 9.73027 17.7264 9.68441C17.7149 9.65574 17.7092 9.63281 17.7034 9.60414C17.9041 9.52961 18.1049 9.44933 18.3113 9.38626C18.3572 9.37479 18.4203 9.42639 18.4777 9.44932C18.4432 9.50093 18.426 9.57547 18.3744 9.5984ZM15.7708 9.6156C15.6274 9.70161 15.5242 9.84495 15.3808 9.93669C15.2145 10.0456 15.0081 10.0858 14.8418 9.95963C14.7443 9.89082 14.6583 9.73601 14.6525 9.6156C14.6525 9.52387 14.7729 9.42065 14.8532 9.34038C14.9048 9.28878 14.9909 9.28306 15.0482 9.24292C15.1858 9.15692 15.2145 9.06517 15.117 8.8989C14.9679 8.64662 14.7901 8.56636 14.5206 8.6753C14.4862 8.68676 14.4403 8.67529 14.3486 8.66382C14.7729 8.30833 15.2031 8.07326 15.7135 8.02739C16.178 7.99299 16.6368 7.97005 17.1013 7.95285C17.8755 7.92418 18.6497 7.90697 19.4182 7.88977C19.4698 7.88977 19.5271 7.90125 19.5845 7.91271C19.5902 7.93565 19.5959 7.95858 19.6074 7.98151C19.2576 8.14206 18.9077 8.30259 18.5637 8.46314C18.4891 8.49754 18.4146 8.52621 18.34 8.56062C18.3859 8.62942 18.4318 8.70395 18.4834 8.77276C18.5006 8.79569 18.535 8.79569 18.5637 8.80716C18.5579 8.83009 18.5465 8.85303 18.5407 8.8817C18.4318 8.90463 18.3228 8.93903 18.2138 8.94476C18.0246 8.95623 17.8296 8.95623 17.6404 8.9505C17.3536 8.9505 17.1013 9.03651 16.8489 9.18558C16.6769 9.28879 16.4533 9.31746 16.2583 9.392C16.092 9.45507 15.9256 9.51813 15.7765 9.60986L15.7708 9.6156ZM27.8828 23.0839C27.7795 23.2101 27.7394 23.3993 27.6993 23.5655C27.6649 23.7032 27.6878 23.858 27.6706 24.007C27.6362 24.3281 27.4527 24.4887 27.1086 24.5231C27.0111 24.4715 26.8677 24.4371 26.8276 24.3568C26.7874 24.2708 26.8218 24.116 26.8849 24.0357C27.0569 23.8293 27.1946 23.6401 27.12 23.3419C27.1028 23.2903 27.2118 23.1585 27.2921 23.1298C27.5387 23.0209 27.6935 22.866 27.7107 22.5908C27.7107 22.545 27.7681 22.4991 27.7968 22.4532C27.8312 22.4876 27.877 22.5106 27.9057 22.5507C28.1007 22.8144 28.0778 22.8431 27.877 23.0897L27.8828 23.0839Z" fill="#F94395"/>
<path d="M27.3436 13.0726C27.1601 13.3994 27.4468 13.4395 27.636 13.5542C27.7278 13.6115 27.8654 13.6746 27.8826 13.7606C27.9228 13.9613 27.8081 14.1849 27.9343 14.3856C27.8597 14.4028 27.7622 14.4544 27.7049 14.4257C27.5099 14.334 27.3665 14.1792 27.378 13.9441C27.3894 13.7491 27.3092 13.6173 27.1715 13.4854C27.0626 13.3764 26.9823 13.2274 26.9249 13.0783C26.8676 12.935 26.8905 12.7687 27.0568 12.7056C27.2518 12.6311 27.2174 12.8489 27.292 12.9235C27.3264 12.9579 27.3264 13.0152 27.3493 13.0726H27.3436Z" fill="#F70080"/>
<path d="M5.92987 14.9304H0.126221C1.50832 6.47327 9.19298 0 18.4662 0H18.6899C27.9172 0 35.5503 6.48474 36.8349 14.9304H31.0828C29.5631 9.41463 24.505 5.36094 18.5006 5.36094C12.4962 5.36094 7.44386 9.41463 5.92413 14.9304H5.92987Z" fill="white"/>
<path d="M36.9495 19.8099C36.5481 23.9095 34.9997 27.8428 32.4477 31.197L18.902 48.9942C18.5006 49.6077 17.5658 49.5962 17.1758 48.977L4.1979 31.0536C1.7778 27.7109 0.338355 23.835 0 19.8099H5.55705C6.2567 26.352 11.7965 31.4492 18.5292 31.4492C25.2619 31.4492 30.8018 26.352 31.5014 19.8099H36.9438H36.9495Z" fill="white"/>
</svg>
