<svg width="119" height="46" viewBox="0 0 119 46" fill="none" xmlns="http://www.w3.org/2000/svg">
<path d="M18.1038 41.2829H16.9096C14.9433 41.2829 13.4867 41.1028 12.5186 40.7629C11.5716 41.1028 10.112 41.2829 8.14567 41.2829H5.79335C1.93011 41.2829 0 39.6182 0 36.2713V33.1743H2.4247V36.2713C2.4247 37.3259 2.75946 38.061 3.40785 38.4387C3.91752 38.7437 4.72576 38.8861 5.86573 38.8861H8.14869C8.79708 38.8861 9.27358 38.8861 9.58722 38.8686C8.81518 37.9738 8.42916 36.9541 8.42916 35.8268C8.42916 35.362 8.49852 34.8971 8.64026 34.4497C9.18311 32.7124 10.694 31.62 12.5216 31.62C14.3492 31.62 15.8752 32.7124 16.421 34.4497C16.5628 34.8971 16.6321 35.362 16.6321 35.8268C16.6321 36.9541 16.2461 37.9738 15.4922 38.8686C15.7907 38.8861 16.2642 38.8861 16.9156 38.8861H18.1099V41.2858L18.1038 41.2829ZM13.3811 37.6862C14.0657 37.1865 14.4185 36.5241 14.4185 35.6816C14.4185 34.5892 13.7159 33.6943 12.5216 33.6943C11.3273 33.6943 10.6428 34.5892 10.6428 35.6816C10.6428 36.5241 10.9956 37.1865 11.6802 37.6862C11.9607 37.9012 12.2411 38.0813 12.5216 38.2237C12.8202 38.0813 13.1006 37.9012 13.3811 37.6862ZM13.5922 30.0598H11.4148V28H13.5922V30.0598Z" fill="white"/>
<path d="M19.5573 44.2545H17.3799V42.1773H19.5573V44.2545ZM23.0345 37.8281C23.0345 38.7781 22.7721 39.5654 22.2625 40.1901C21.6834 40.9251 20.8752 41.2824 19.8559 41.2824H17.7659V38.8827H19.3281C20.1544 38.8827 20.5736 38.2929 20.5736 37.1279V33.1709H23.0315V37.8252L23.0345 37.8281ZM22.8777 44.2545H20.6822V42.1773H22.8777V44.2545Z" fill="white"/>
<path d="M29.392 39.6357C29.392 41.283 28.9879 42.4654 28.1616 43.1975C27.4076 43.8948 26.1772 44.2347 24.4913 44.2347V42.2126C26.1078 42.2126 26.916 41.4253 26.916 39.8506V33.1743H29.392V39.6357Z" fill="white"/>
<path d="M33.1223 30.1035H37.646C38.5146 30.1035 39.2444 30.1965 39.8355 30.3766C40.4266 30.5596 40.9001 30.8095 41.2589 31.1291C41.6178 31.4487 41.8711 31.8205 42.025 32.2505C42.1757 32.6805 42.2542 33.1453 42.2542 33.6451C42.2542 34.1767 42.1757 34.6706 42.0189 35.118C41.8621 35.5683 41.6027 35.9577 41.2469 36.2859C40.888 36.6142 40.4145 36.8728 39.8234 37.0617C39.2323 37.2505 38.5085 37.3435 37.652 37.3435H35.5199V41.2946H33.1283V30.1035H33.1223ZM37.5797 35.4027C38.0139 35.4027 38.3758 35.365 38.6714 35.2865C38.9639 35.2081 39.1992 35.0948 39.3801 34.9408C39.558 34.7897 39.6847 34.6096 39.7541 34.4004C39.8234 34.1912 39.8596 33.9501 39.8596 33.6799C39.8596 33.1366 39.6968 32.727 39.3711 32.4481C39.0453 32.1721 38.4482 32.0326 37.5827 32.0326H35.5169V35.4027H37.5827H37.5797Z" fill="#F94395"/>
<path d="M47.3118 39.8393C47.7672 39.8393 48.1502 39.7464 48.4578 39.5575C48.7654 39.3687 49.0398 39.0404 49.2781 38.5697L51.0846 39.2757C50.9549 39.5895 50.789 39.8858 50.5869 40.1618C50.3849 40.4378 50.1346 40.679 49.83 40.8823C49.5254 41.0857 49.1665 41.2484 48.7473 41.3675C48.3281 41.4866 47.8456 41.5476 47.2907 41.5476C45.8702 41.5476 44.8057 41.1729 44.103 40.4262C43.3973 39.6796 43.0444 38.6104 43.0444 37.2217C43.0444 36.5331 43.147 35.9172 43.352 35.3797C43.5571 34.8423 43.8497 34.3832 44.2236 34.0084C44.5976 33.6337 45.0469 33.349 45.5656 33.1543C46.0844 32.9596 46.6604 32.8638 47.2907 32.8638C48.5935 32.8638 49.5706 33.224 50.2281 33.9445C50.8855 34.665 51.2112 35.6383 51.2112 36.8614V37.7388H45.3214C45.3425 38.3983 45.5174 38.9126 45.8431 39.2815C46.1688 39.6534 46.6574 39.8393 47.3088 39.8393H47.3118ZM49.0217 36.2978C49.0217 35.7342 48.88 35.2955 48.5995 34.9817C48.3161 34.6679 47.8667 34.5111 47.2485 34.5111C46.9439 34.5111 46.6785 34.5575 46.4523 34.6534C46.2231 34.7464 46.0331 34.8742 45.8733 35.0369C45.7164 35.1996 45.5928 35.3885 45.5083 35.6005C45.4209 35.8155 45.3726 36.0479 45.3606 36.2978H49.0217Z" fill="#F94395"/>
<path d="M52.9243 33.114H55.1379V34.2587C55.4184 33.8316 55.7622 33.5092 56.1633 33.2942C56.5644 33.0792 56.9866 32.9717 57.4329 32.9717C57.6501 32.9717 57.828 32.9804 57.9698 32.9949C58.1115 33.0094 58.2351 33.0298 58.3437 33.0501L58.0663 35.0402C57.8069 34.9763 57.4872 34.9473 57.1072 34.9473C56.8569 34.9473 56.6187 34.9763 56.3925 35.0344C56.1663 35.0925 55.9582 35.2 55.7743 35.3569C55.5782 35.5254 55.4365 35.7114 55.343 35.9205C55.2495 36.1297 55.2043 36.3447 55.2043 36.5626V41.2953H52.9273V33.1111L52.9243 33.114Z" fill="#F94395"/>
<path d="M64.9996 35.6843C64.8368 35.3298 64.6106 35.0422 64.3241 34.8214C64.0376 34.6035 63.6335 34.4931 63.1117 34.4931C62.8071 34.4931 62.5568 34.5163 62.3548 34.5628C62.1527 34.6093 61.9959 34.6703 61.8843 34.743C61.7697 34.8156 61.6883 34.8998 61.64 34.9928C61.5918 35.0858 61.5676 35.1758 61.5676 35.2601C61.5676 35.5216 61.6521 35.7133 61.821 35.8324C61.9899 35.9515 62.3186 36.0561 62.8041 36.1375L63.8777 36.3089C64.9936 36.4861 65.7807 36.7766 66.2361 37.1776C66.6915 37.5814 66.9207 38.1305 66.9207 38.8307C66.9207 39.6877 66.607 40.353 65.9767 40.8295C65.3464 41.306 64.4749 41.5413 63.356 41.5413C62.3367 41.5413 61.4862 41.396 60.8016 41.1026C60.117 40.8092 59.5923 40.4141 59.2244 39.9114L60.494 38.6244C60.9072 39.0224 61.3415 39.3246 61.8029 39.5338C62.2643 39.7429 62.7709 39.8475 63.3228 39.8475C64.2246 39.8475 64.6739 39.5715 64.6739 39.0166C64.6739 38.8074 64.6015 38.6244 64.4538 38.4675C64.306 38.3106 64.0285 38.2002 63.6154 38.1392L62.394 37.9504C60.3855 37.6366 59.3842 36.7912 59.3842 35.4112C59.3842 35.0248 59.4747 34.6732 59.6526 34.3536C59.8305 34.0341 60.0839 33.7668 60.4096 33.546C60.7353 33.3252 61.1213 33.1567 61.5737 33.0376C62.023 32.9184 62.5206 32.8574 63.0635 32.8574C63.7149 32.8574 64.2608 32.9301 64.7071 33.0782C65.1504 33.2235 65.5153 33.4036 65.7988 33.6186C66.0823 33.8336 66.2964 34.0544 66.4412 34.2839C66.5889 34.5134 66.6885 34.7139 66.7428 34.8795L65.0026 35.6785L64.9996 35.6843Z" fill="#F94395"/>
<path d="M68.4646 30.1035H70.8079V32.0791H68.4646V30.1035ZM68.4978 33.1134H70.7747V41.2976H68.4978V33.1134Z" fill="#F94395"/>
<path d="M76.4535 32.8638C77.1049 32.8638 77.6568 32.9393 78.1122 33.0904C78.5676 33.2415 78.9325 33.4593 79.2099 33.7412C79.4874 34.023 79.6864 34.3658 79.8131 34.7667C79.9367 35.1706 80.0001 35.6209 80.0001 36.1235V41.2978H77.8528V40.2635C77.515 40.6296 77.1381 40.9288 76.7219 41.1583C76.3027 41.3879 75.7659 41.5041 75.1024 41.5041C74.7224 41.5041 74.3635 41.4576 74.0197 41.3617C73.6789 41.2687 73.3804 41.1206 73.124 40.923C72.8677 40.7255 72.6656 40.4698 72.5148 40.1618C72.3641 39.8539 72.2856 39.4849 72.2856 39.0578C72.2856 38.4942 72.4153 38.0352 72.6747 37.6778C72.934 37.3234 73.2778 37.0445 73.7001 36.8382C74.1223 36.6348 74.5988 36.4925 75.1235 36.414C75.6483 36.3356 76.1851 36.2862 76.7249 36.2658L77.8166 36.2194V35.8126C77.8166 35.31 77.6719 34.9672 77.3854 34.7783C77.0989 34.5895 76.7581 34.4965 76.369 34.4965C75.9016 34.4965 75.5246 34.5924 75.2381 34.7871C74.9516 34.9817 74.7315 35.2693 74.5807 35.6586L72.7742 34.9846C72.9793 34.3687 73.3713 33.8603 73.9473 33.4652C74.5234 33.0671 75.3587 32.8696 76.4535 32.8696V32.8638ZM76.7943 37.6923C76.3178 37.7127 75.9317 37.7592 75.6392 37.8347C75.3467 37.9073 75.1205 38.0003 74.9637 38.1078C74.8068 38.2182 74.7013 38.3489 74.647 38.5C74.5927 38.6511 74.5656 38.8109 74.5656 38.9794C74.5656 39.2525 74.6621 39.4646 74.8581 39.6214C75.0541 39.7783 75.3256 39.8568 75.6724 39.8568C76.2575 39.8568 76.7339 39.726 77.1049 39.4646C77.31 39.3193 77.4788 39.1334 77.6085 38.9067C77.7382 38.683 77.8046 38.4012 77.8046 38.0671V37.6429L76.7943 37.6894V37.6923Z" fill="#F94395"/>
<path d="M112.232 17.297C112.15 16.945 112.074 16.5929 111.987 16.2462C111.927 16.0009 111.862 15.7555 111.77 15.5155C111.661 15.2381 111.466 15.0301 111.189 14.8914C111.069 14.8274 110.955 14.7421 110.841 14.6674C110.803 14.6407 110.765 14.6087 110.721 14.5767C110.547 14.4647 110.347 14.47 110.27 14.5927C110.189 14.7207 110.287 14.9021 110.493 14.9928C110.591 15.0354 110.694 15.0621 110.787 15.0995C111.102 15.2275 111.275 15.4622 111.297 15.7929C111.319 16.0809 111.112 16.3849 110.825 16.5129C110.716 16.5609 110.602 16.5929 110.499 16.6516C110.401 16.7103 110.319 16.801 110.222 16.8916C109.776 16.0329 109.336 15.1848 108.891 14.3314C108.858 14.3314 108.831 14.3367 108.798 14.342C108.777 14.438 108.717 14.5394 108.739 14.6301C108.782 14.8274 108.842 15.0301 108.94 15.2115C109.081 15.4835 109.227 15.7448 109.238 16.0595C109.238 16.0862 109.238 16.1182 109.255 16.1396C109.559 16.5556 109.841 16.9823 110.173 17.3664C110.265 17.473 110.509 17.4464 110.705 17.4837C110.705 17.4837 110.705 17.5157 110.694 17.5424C110.205 18.7425 109.727 19.9426 109.227 21.1321C109.113 21.3988 108.978 21.6548 108.825 21.9002C108.673 22.1455 108.5 22.3749 108.51 22.6896C108.51 22.7376 108.489 22.8069 108.456 22.8389C108.282 23.0096 108.136 23.1803 108.179 23.4577C108.19 23.5163 108.022 23.6497 107.913 23.6817C107.516 23.7937 107.223 24.0231 106.935 24.2897C106.794 24.4178 106.62 24.5084 106.446 24.5991C106.321 24.6631 106.218 24.6205 106.169 24.4764C105.957 23.8097 105.74 23.143 105.534 22.4709C105.436 22.1562 105.496 21.8468 105.604 21.5428C105.691 21.2974 105.8 21.0521 105.854 20.8014C105.946 20.38 105.887 19.996 105.463 19.7399C105.409 19.7079 105.403 19.5853 105.354 19.4946C105.338 19.4039 105.316 19.3132 105.316 19.2225C105.316 19.1319 105.349 19.0465 105.349 18.9558C105.349 18.6838 105.202 18.5345 104.931 18.5185C104.708 18.5025 104.485 18.5185 104.42 18.2358C104.414 18.2038 104.284 18.1718 104.219 18.1824C103.779 18.2625 103.323 18.2998 102.915 18.4545C102.41 18.6465 102.019 18.5718 101.682 18.1718C101.459 17.8997 101.226 17.6384 101.03 17.345C100.824 17.0303 100.775 16.6783 100.916 16.3209C101.014 16.0702 101.019 15.8302 100.905 15.5795C100.813 15.3875 100.873 15.1901 100.976 15.0088C101.22 14.5821 101.552 14.2407 101.948 13.942C102.051 13.8673 102.133 13.7446 102.171 13.622C102.28 13.3126 102.497 13.1206 102.801 13.0406C103.105 12.9659 103.42 12.9286 103.73 12.8859C104.132 12.8325 104.534 12.7952 104.936 12.7472C105.115 12.7259 105.229 12.7792 105.284 12.9606C105.36 13.2486 105.561 13.3873 105.859 13.4086C105.93 13.4139 105.995 13.4779 106.06 13.5153C106.261 13.6326 106.452 13.766 106.653 13.878C106.761 13.9367 106.832 13.8887 106.854 13.7606C106.875 13.6486 106.919 13.542 106.968 13.3819C107.342 13.8246 107.826 13.7766 108.293 13.8033C108.467 13.814 108.63 13.8673 108.864 13.9153C108.804 13.6486 108.777 13.3873 108.684 13.1472C108.652 13.0726 108.462 13.0352 108.337 13.0299C108.016 13.0032 107.88 12.9499 107.723 12.7205C108.157 12.5232 108.608 12.5072 109.103 12.5552C108.902 12.2191 108.728 11.9151 108.527 11.5844C108.489 11.6964 108.451 11.7818 108.407 11.8991C108.337 11.8031 108.288 11.7231 108.222 11.6591C108.114 11.5471 107.983 11.5151 107.848 11.6057C107.717 11.6964 107.766 11.8031 107.815 11.9151C107.935 12.1711 107.815 12.3952 107.511 12.4272C107.304 12.4485 107.152 12.4912 107.152 12.7792C107.082 12.6672 107.038 12.6032 106.989 12.5285C106.794 12.6459 106.685 12.5125 106.571 12.3898C106.473 12.2778 106.381 12.1978 106.234 12.3418C106.202 12.3738 106.06 12.3525 106.001 12.3098C105.773 12.1498 105.555 11.9738 105.338 11.8031C105.023 11.5524 104.686 11.5417 104.344 11.7391C104.029 11.9204 103.768 12.1498 103.616 12.4805C103.594 12.5285 103.551 12.5872 103.513 12.5979C103.279 12.6352 103.046 12.6939 102.812 12.6939C102.486 12.6939 102.236 12.3792 102.263 12.0645C102.29 11.7444 102.616 11.4831 102.937 11.5257C103.062 11.5417 103.181 11.5791 103.301 11.6057C103.518 11.6484 103.616 11.5684 103.54 11.3657C103.475 11.1897 103.344 11.035 103.225 10.843C103.263 10.827 103.328 10.7843 103.399 10.7523C103.909 10.5176 104.425 10.2829 104.936 10.0429C105.007 10.0109 105.055 9.93089 105.115 9.87222C105.045 9.80822 104.974 9.73355 104.893 9.68555C104.833 9.65355 104.735 9.6802 104.67 9.65353C104.577 9.61619 104.447 9.5682 104.425 9.49886C104.398 9.40285 104.453 9.28017 104.496 9.17882C104.518 9.13082 104.588 9.08815 104.643 9.06681C104.979 8.9388 105.316 8.79478 105.664 8.69877C106.001 8.60276 106.348 8.65611 106.674 8.78412C106.94 8.88546 107.19 9.02415 107.451 9.13616C107.625 9.21083 107.685 9.3175 107.609 9.49352C107.598 9.52019 107.598 9.55752 107.581 9.63753C108.255 9.3495 108.749 9.72288 109.282 9.99491C107.429 8.04804 105.159 6.92258 102.464 6.70389C101.34 6.61321 100.275 6.67189 99.2647 6.87991C99.1995 6.89058 99.1343 6.90658 99.0691 6.92258C98.9931 6.93858 98.917 6.95992 98.8464 6.97592C98.7595 6.99726 98.678 7.01859 98.5911 7.04526C98.0805 7.18394 97.5916 7.35996 97.1135 7.57331C97.0483 7.60532 96.9832 7.63199 96.918 7.664C96.8582 7.69067 96.8039 7.71733 96.7441 7.744C96.6627 7.78134 96.5866 7.82401 96.5106 7.86135C96.4345 7.90402 96.353 7.94669 96.277 7.98936C95.435 8.46407 94.6419 9.05614 93.8977 9.77622C93.8162 9.85622 93.7347 9.93624 93.6532 10.0162C93.6532 10.0162 93.6532 10.0216 93.6532 10.0269C93.6641 10.0482 93.6749 10.0643 93.6858 10.0856C93.8488 9.96291 94.0117 9.84023 94.1747 9.71755C94.3377 9.59487 94.4898 9.46152 94.6636 9.36551C94.7396 9.32284 94.8646 9.36551 94.9624 9.36551C94.9243 9.44552 94.9135 9.56286 94.8483 9.61087C94.4572 9.88289 94.0552 10.1389 93.6586 10.411C93.5717 10.4696 93.5174 10.5763 93.4468 10.6616C93.5283 10.7203 93.6206 10.7737 93.6967 10.843C93.7456 10.8857 93.789 10.9497 93.8162 11.0137C93.8379 11.0724 93.827 11.1364 93.8379 11.2004C93.8814 11.195 93.9031 11.2004 93.9085 11.1897C94.1747 10.859 94.4246 10.5176 94.7016 10.2029C94.8646 10.0216 95.0656 9.87222 95.2557 9.72287C95.3589 9.64287 95.4893 9.60553 95.5436 9.77088C95.5925 9.91489 95.674 9.90423 95.7826 9.87756C95.8913 9.85089 95.9945 9.82956 96.1357 9.79756C96.0162 10.1229 96.1466 10.2936 96.4943 10.3469C96.4128 10.443 96.3693 10.5123 96.3041 10.555C96.1086 10.6883 95.9021 10.8057 95.712 10.939C95.6577 10.9817 95.636 11.067 95.598 11.1364C95.4458 11.1097 95.2992 11.083 95.1471 11.0617C94.8809 11.0297 94.7505 11.1097 94.7016 11.339C94.794 11.3124 94.8755 11.291 94.908 11.2804C95.0384 11.3711 95.147 11.4297 95.234 11.5097C95.272 11.5471 95.2992 11.6644 95.2829 11.6804C95.1416 11.7818 94.9841 11.8724 94.8265 11.9471C94.7994 11.9578 94.7016 11.8938 94.6853 11.8458C94.631 11.6964 94.5224 11.7071 94.4409 11.7764C94.3105 11.8938 94.1693 12.0218 94.0878 12.1711C93.9248 12.4645 93.7184 12.6885 93.387 12.8112C93.1317 12.9019 93.0991 13.0192 93.11 13.2699C93.11 13.3659 93.0556 13.4726 92.9959 13.5526C92.8981 13.6913 92.7623 13.8033 92.67 13.9473C92.5559 14.1233 92.4147 14.23 92.2082 14.2674C92.0072 14.3047 91.8062 14.3527 91.7356 14.5821C91.7302 14.6034 91.7085 14.6301 91.6976 14.6301C91.4206 14.6301 91.4151 14.8648 91.3608 15.0301C91.2413 15.3821 91.1544 15.7395 91.0674 16.0969C91.0566 16.1449 91.0892 16.2089 91.1055 16.2622C91.1598 16.2302 91.2358 16.2089 91.2684 16.1609C91.3173 16.0916 91.3282 15.9902 91.3716 15.9155C91.4205 15.8355 91.4857 15.7715 91.5455 15.7022C91.5781 15.7129 91.6052 15.7235 91.6378 15.7395C91.6161 15.9209 91.5998 16.1076 91.5726 16.2942C91.5509 16.4383 91.5618 16.5556 91.6813 16.6676C91.741 16.7263 91.7682 16.833 91.7899 16.9236C91.8171 17.0303 91.8117 17.1423 91.828 17.249C91.8823 17.5744 92.0235 17.6384 92.3277 17.4997C92.3603 17.4837 92.3929 17.4677 92.4201 17.4517C92.5722 17.3397 92.6971 17.1637 92.9253 17.217C93.2729 17.297 93.6532 17.361 93.8651 17.6651C94.0986 18.0064 94.4028 18.1718 94.8048 18.2411C95.2992 18.3318 95.3752 18.6625 95.2992 19.1212C95.2883 19.1692 95.2285 19.2172 95.1797 19.2492C95.1199 19.2866 95.0438 19.3132 94.9732 19.3399C95.0004 19.3559 95.0276 19.3719 95.0547 19.3879C95.3209 19.3986 95.5816 19.4092 95.8478 19.4306C95.9184 19.4359 96.0162 19.4679 96.0542 19.5212C96.2172 19.7453 96.4617 19.7346 96.6952 19.7399C96.8582 19.7399 96.9723 19.7826 97.0755 19.932C97.157 20.0493 97.32 20.1293 97.4558 20.204C97.8034 20.4014 97.8414 20.524 97.6459 20.8654C97.4232 21.2494 97.3091 21.6601 97.2874 22.0975C97.2819 22.2255 97.2656 22.3589 97.2493 22.4869C97.2113 22.8176 97.0429 23.047 96.6898 23.1163C96.4345 23.1643 96.2933 23.3137 96.2335 23.5643C96.1901 23.7617 96.1412 23.9537 96.0706 24.1404C96.0271 24.2524 95.9402 24.3431 95.8424 24.4284C95.8587 24.5831 95.7881 24.6525 95.6197 24.7058C95.4241 24.7698 95.3915 24.9512 95.4241 25.1325C95.4947 25.4899 95.7012 25.7566 96.0271 25.9326C96.0923 25.9699 96.1575 26.0019 96.2498 26.0446C96.076 26.1566 95.9565 26.0659 95.8533 25.9966C95.3046 25.6392 94.8374 25.1912 94.5115 24.6311C94.2562 24.1884 94.028 23.7137 93.8813 23.2283C93.7075 22.6629 93.4631 22.1669 93.0339 21.7401C92.8492 21.5588 92.7297 21.3028 92.6265 21.0574C92.4798 20.716 92.344 20.3747 92.0833 20.092C91.9149 19.9053 91.8497 19.7079 92.029 19.4839C92.067 19.4412 92.0398 19.3452 92.0344 19.2759C92.0235 19.1532 92.0018 19.0252 92.0072 18.9025C92.0072 18.8118 92.0615 18.7212 92.0778 18.6252C92.1159 18.3478 92.1104 18.0918 91.8823 17.8677C91.7302 17.7184 91.627 17.5104 91.5238 17.3184C91.426 17.1263 91.3499 16.9396 91.1489 16.8116C91.0512 16.7476 91.0131 16.5823 90.9479 16.4596C90.8882 16.4809 90.8556 16.5076 90.8339 16.5396C90.7958 16.6089 90.8067 16.6943 90.8013 16.7636C90.7578 17.9744 90.8773 19.1692 91.2847 20.316C91.3391 20.476 91.3988 20.636 91.464 20.7907V20.8014C91.6867 21.3721 91.942 21.9108 92.2299 22.4122C92.2299 22.4122 92.23 22.4229 92.2408 22.4282C92.2788 22.4976 92.3223 22.5616 92.3603 22.6309C93.6152 24.7378 95.4295 26.2153 97.7926 27.0474C97.8741 27.074 97.9501 27.1007 98.0316 27.1274C98.0696 27.1434 98.1077 27.1541 98.1457 27.1647C98.2706 27.2021 98.3956 27.2447 98.5205 27.2767C98.6454 27.3087 98.7758 27.3461 98.9062 27.3781C98.9768 27.3994 99.0529 27.4154 99.1289 27.4314C99.444 27.5061 99.7699 27.5701 100.107 27.6288C100.367 27.6714 100.634 27.6928 100.894 27.7248H102.111C102.529 27.6714 102.942 27.6341 103.355 27.5648C103.888 27.4741 104.409 27.3461 104.914 27.1861C104.985 27.1647 105.055 27.1381 105.132 27.1114C105.17 27.1007 105.213 27.0847 105.251 27.0687C105.316 27.0474 105.387 27.0207 105.452 26.994C105.555 26.9567 105.664 26.914 105.767 26.866C105.827 26.8394 105.881 26.818 105.941 26.7913C106.24 26.6633 106.528 26.514 106.81 26.354C106.93 26.2846 107.049 26.2153 107.169 26.1459C107.169 26.1459 107.174 26.1459 107.18 26.1406C107.859 25.7246 108.483 25.2339 109.054 24.6791C109.135 24.5991 109.222 24.5138 109.304 24.4284C109.472 24.2577 109.629 24.0764 109.787 23.895C109.847 23.8257 109.907 23.751 109.966 23.6764C110.015 23.6177 110.064 23.5537 110.113 23.4897C110.194 23.3883 110.265 23.287 110.341 23.1803C110.401 23.095 110.461 23.0096 110.52 22.9189C110.52 22.9189 110.526 22.9083 110.531 22.9083C110.564 22.8549 110.602 22.8016 110.634 22.7483C110.645 22.7269 110.656 22.7109 110.667 22.6896C110.77 22.5296 110.863 22.3695 110.95 22.2095C110.993 22.1295 111.042 22.0495 111.08 21.9695C111.123 21.8895 111.161 21.8095 111.205 21.7241C111.237 21.6548 111.27 21.5908 111.303 21.5215C111.335 21.4521 111.368 21.3881 111.395 21.3188C111.455 21.1801 111.514 21.0414 111.569 20.9027C111.596 20.8334 111.623 20.764 111.65 20.6947C111.699 20.5614 111.743 20.428 111.786 20.2947C111.786 20.284 111.786 20.2733 111.797 20.2627C111.819 20.1933 111.84 20.1186 111.862 20.044C111.884 19.9693 111.906 19.8946 111.922 19.8253C111.944 19.7506 111.96 19.6759 111.976 19.6013C111.987 19.5586 111.998 19.5106 112.009 19.4679C112.025 19.3986 112.041 19.3292 112.052 19.2599C112.069 19.1905 112.085 19.1212 112.09 19.0519C112.128 18.8385 112.161 18.6252 112.183 18.4118C112.193 18.3158 112.204 18.2198 112.221 18.1238C112.237 18.0011 112.253 17.8837 112.264 17.7664V17.313C112.264 17.313 112.264 17.3077 112.264 17.3024L112.232 17.297ZM95.8804 11.2804C95.8532 11.2804 95.8261 11.2697 95.7989 11.259C95.7229 11.2377 95.6577 11.195 95.5925 11.131C95.8152 11.003 96.0325 10.843 96.3204 10.9603C96.353 10.971 96.3802 10.987 96.4128 10.9977C96.277 11.2057 96.076 11.3017 95.8858 11.2804H95.8804ZM96.7713 9.04014C96.6083 9.0668 96.5812 9.18415 96.5268 9.30683C96.4943 9.3815 96.3747 9.42418 96.2878 9.46152C96.2226 9.49352 96.1357 9.49885 96.0651 9.49352C95.9891 9.48819 95.913 9.45619 95.837 9.42952C95.8641 9.34951 95.8695 9.21615 95.9239 9.18948C96.0705 9.12548 96.152 9.0348 96.2064 8.89079C96.2661 8.7361 96.6029 8.66677 96.7441 8.76278C96.793 8.79478 96.8148 8.85879 96.8528 8.91747C96.8202 8.96547 96.7985 9.02948 96.7659 9.03481L96.7713 9.04014ZM101.405 8.92813C101.209 9.02414 101.003 9.0508 100.791 9.00813C100.78 8.98146 100.775 8.96014 100.769 8.93347C100.96 8.86413 101.15 8.78945 101.345 8.73078C101.389 8.72011 101.448 8.76811 101.503 8.78944C101.47 8.83745 101.454 8.90679 101.405 8.92813ZM98.9388 8.94413C98.803 9.02414 98.7052 9.15748 98.5694 9.24283C98.4118 9.34417 98.2163 9.38151 98.0587 9.26417C97.9664 9.20016 97.8849 9.05614 97.8795 8.94413C97.8795 8.85879 97.9936 8.76277 98.0696 8.6881C98.1185 8.64009 98.2 8.63477 98.2543 8.59743C98.3847 8.51742 98.4119 8.43208 98.3195 8.27739C98.1783 8.0427 98.0099 7.96803 97.7545 8.06938C97.7219 8.08005 97.6785 8.06937 97.5916 8.0587C97.9936 7.728 98.401 7.50932 98.8845 7.46665C99.3245 7.43464 99.759 7.4133 100.199 7.3973C100.932 7.37063 101.666 7.35462 102.394 7.33862C102.443 7.33862 102.497 7.34929 102.551 7.35996C102.557 7.3813 102.562 7.40263 102.573 7.42397C102.242 7.57331 101.91 7.72266 101.584 7.87201C101.514 7.90401 101.443 7.93069 101.372 7.96269C101.416 8.0267 101.459 8.09604 101.508 8.16005C101.525 8.18138 101.557 8.18138 101.584 8.19205C101.579 8.21338 101.568 8.23472 101.563 8.26139C101.459 8.28273 101.356 8.31472 101.253 8.32006C101.074 8.33072 100.889 8.33073 100.71 8.3254C100.438 8.3254 100.199 8.40541 99.96 8.54409C99.7971 8.6401 99.5852 8.66677 99.4005 8.73612C99.243 8.79479 99.0854 8.85345 98.9442 8.93879L98.9388 8.94413ZM110.412 21.4734C110.314 21.5908 110.276 21.7668 110.238 21.9215C110.205 22.0495 110.227 22.1935 110.211 22.3322C110.178 22.6309 110.004 22.7803 109.678 22.8123C109.586 22.7643 109.45 22.7323 109.412 22.6576C109.374 22.5776 109.407 22.4336 109.466 22.3589C109.629 22.1669 109.76 21.9908 109.689 21.7135C109.673 21.6655 109.776 21.5428 109.852 21.5161C110.086 21.4148 110.232 21.2708 110.249 21.0147C110.249 20.9721 110.303 20.9294 110.33 20.8867C110.363 20.9187 110.406 20.9401 110.433 20.9774C110.618 21.2228 110.596 21.2494 110.406 21.4788L110.412 21.4734Z" fill="#F94395"/>
<path d="M109.901 12.1603C109.727 12.4643 109.999 12.5017 110.178 12.6083C110.265 12.6617 110.396 12.7204 110.412 12.8004C110.45 12.9871 110.341 13.1951 110.461 13.3818C110.39 13.3978 110.298 13.4458 110.244 13.4191C110.059 13.3338 109.923 13.1897 109.934 12.971C109.945 12.7897 109.869 12.667 109.738 12.5443C109.635 12.443 109.559 12.3043 109.505 12.1656C109.45 12.0323 109.472 11.8776 109.63 11.8189C109.814 11.7496 109.782 11.9523 109.852 12.0216C109.885 12.0536 109.885 12.107 109.907 12.1603H109.901Z" fill="#F70080"/>
<path d="M89.6168 13.8895H84.1194C85.4286 6.02196 92.7078 0 101.492 0H101.704C110.444 0 117.674 6.03263 118.891 13.8895H113.443C112.003 8.75825 107.212 4.98718 101.524 4.98718C95.8367 4.98718 91.0509 8.75825 89.6114 13.8895H89.6168Z" fill="white"/>
<path d="M119 18.4287C118.62 22.2424 117.153 25.9015 114.736 29.0218L101.905 45.5782C101.524 46.149 100.639 46.1383 100.27 45.5622L87.9764 28.8885C85.684 25.7788 84.3205 22.1731 84 18.4287H89.2639C89.9266 24.5147 95.1741 29.2565 101.552 29.2565C107.929 29.2565 113.177 24.5147 113.839 18.4287H118.995H119Z" fill="white"/>
</svg>
